<mxfile host="app.diagrams.net" agent="Mozilla/5.0 (Windows NT 10.0; Win64; x64) AppleWebKit/537.36 (KHTML, like Gecko) Chrome/135.0.0.0 Safari/537.36" version="26.2.12">
  <diagram name="Page-1" id="NQi-qj9RWjXXZ9nGB_0W">
    <mxGraphModel dx="2530" dy="3084" grid="1" gridSize="10" guides="1" tooltips="1" connect="1" arrows="1" fold="1" page="1" pageScale="1" pageWidth="850" pageHeight="1100" math="0" shadow="0">
      <root>
        <mxCell id="0" />
        <mxCell id="1" parent="0" />
        <mxCell id="jfEfAhBc7xesXZ9xOc8o-419" value="" style="rounded=0;whiteSpace=wrap;html=1;dashed=1;" parent="1" vertex="1">
          <mxGeometry x="440" y="-1710" width="250" height="140" as="geometry" />
        </mxCell>
        <mxCell id="jfEfAhBc7xesXZ9xOc8o-405" value="" style="rounded=0;whiteSpace=wrap;html=1;dashed=1;" parent="1" vertex="1">
          <mxGeometry x="910" y="-1060" width="70" height="30" as="geometry" />
        </mxCell>
        <mxCell id="jfEfAhBc7xesXZ9xOc8o-400" value="" style="rounded=0;whiteSpace=wrap;html=1;dashed=1;" parent="1" vertex="1">
          <mxGeometry x="887" y="-1100" width="71.5" height="30" as="geometry" />
        </mxCell>
        <mxCell id="jfEfAhBc7xesXZ9xOc8o-395" value="" style="rounded=0;whiteSpace=wrap;html=1;dashed=1;" parent="1" vertex="1">
          <mxGeometry x="887" y="-1180" width="103" height="30" as="geometry" />
        </mxCell>
        <mxCell id="jfEfAhBc7xesXZ9xOc8o-392" value="" style="rounded=0;whiteSpace=wrap;html=1;dashed=1;" parent="1" vertex="1">
          <mxGeometry x="940" y="-1230" width="130" height="30" as="geometry" />
        </mxCell>
        <mxCell id="jfEfAhBc7xesXZ9xOc8o-390" value="1&lt;span style=&quot;white-space: pre;&quot;&gt;&#x9;&lt;/span&gt;4&lt;span style=&quot;white-space: pre;&quot;&gt;&#x9;&lt;/span&gt;6&lt;span style=&quot;white-space: pre;&quot;&gt;&#x9;&lt;/span&gt;7&lt;span style=&quot;white-space: pre;&quot;&gt;&#x9;&lt;/span&gt;10&lt;span style=&quot;white-space: pre;&quot;&gt;&#x9;&lt;/span&gt;2&lt;span style=&quot;white-space: pre;&quot;&gt;&#x9;&lt;/span&gt;3" style="text;html=1;align=center;verticalAlign=middle;whiteSpace=wrap;rounded=0;" parent="1" vertex="1">
          <mxGeometry x="830" y="-1230" width="300" height="30" as="geometry" />
        </mxCell>
        <mxCell id="jfEfAhBc7xesXZ9xOc8o-388" value="" style="rounded=0;whiteSpace=wrap;html=1;dashed=1;" parent="1" vertex="1">
          <mxGeometry x="890" y="-1280" width="130" height="30" as="geometry" />
        </mxCell>
        <mxCell id="jfEfAhBc7xesXZ9xOc8o-375" value="1&lt;span style=&quot;white-space: pre;&quot;&gt;&#x9;&lt;/span&gt;10&lt;span style=&quot;white-space: pre;&quot;&gt;&#x9;&lt;/span&gt;4&lt;span style=&quot;white-space: pre;&quot;&gt;&#x9;&lt;/span&gt;6&lt;span style=&quot;white-space: pre;&quot;&gt;&#x9;&lt;/span&gt;7&lt;span style=&quot;white-space: pre;&quot;&gt;&#x9;&lt;/span&gt;2&lt;span style=&quot;white-space: pre;&quot;&gt;&#x9;&lt;/span&gt;3" style="text;html=1;align=center;verticalAlign=middle;whiteSpace=wrap;rounded=0;" parent="1" vertex="1">
          <mxGeometry x="830" y="-1280" width="300" height="30" as="geometry" />
        </mxCell>
        <mxCell id="oJ3QWZMt2NWCqgBl0X_o-31" value="" style="rounded=0;whiteSpace=wrap;html=1;dashed=1;dashPattern=8 8;" parent="1" vertex="1">
          <mxGeometry x="50" y="310" width="1430" height="660" as="geometry" />
        </mxCell>
        <mxCell id="lAZP1rvu_MSJ7CvuDxen-2" value="SortAscending7(Row 0)" style="rounded=0;whiteSpace=wrap;html=1;" parent="1" vertex="1">
          <mxGeometry x="120" y="350" width="130" height="270" as="geometry" />
        </mxCell>
        <mxCell id="lAZP1rvu_MSJ7CvuDxen-3" value="" style="endArrow=classic;html=1;rounded=0;" parent="1" edge="1">
          <mxGeometry width="50" height="50" relative="1" as="geometry">
            <mxPoint x="40" y="360" as="sourcePoint" />
            <mxPoint x="120" y="360" as="targetPoint" />
          </mxGeometry>
        </mxCell>
        <mxCell id="lAZP1rvu_MSJ7CvuDxen-4" value="" style="endArrow=classic;html=1;rounded=0;" parent="1" edge="1">
          <mxGeometry width="50" height="50" relative="1" as="geometry">
            <mxPoint x="40" y="400" as="sourcePoint" />
            <mxPoint x="120" y="400" as="targetPoint" />
          </mxGeometry>
        </mxCell>
        <mxCell id="lAZP1rvu_MSJ7CvuDxen-5" value="" style="endArrow=classic;html=1;rounded=0;" parent="1" edge="1">
          <mxGeometry width="50" height="50" relative="1" as="geometry">
            <mxPoint x="40" y="440" as="sourcePoint" />
            <mxPoint x="120" y="440" as="targetPoint" />
          </mxGeometry>
        </mxCell>
        <mxCell id="lAZP1rvu_MSJ7CvuDxen-6" value="" style="endArrow=classic;html=1;rounded=0;" parent="1" edge="1">
          <mxGeometry width="50" height="50" relative="1" as="geometry">
            <mxPoint x="40" y="480" as="sourcePoint" />
            <mxPoint x="120" y="480" as="targetPoint" />
          </mxGeometry>
        </mxCell>
        <mxCell id="lAZP1rvu_MSJ7CvuDxen-7" value="" style="endArrow=classic;html=1;rounded=0;" parent="1" edge="1">
          <mxGeometry width="50" height="50" relative="1" as="geometry">
            <mxPoint x="40" y="520" as="sourcePoint" />
            <mxPoint x="120" y="520" as="targetPoint" />
          </mxGeometry>
        </mxCell>
        <mxCell id="lAZP1rvu_MSJ7CvuDxen-8" value="" style="endArrow=classic;html=1;rounded=0;" parent="1" edge="1">
          <mxGeometry width="50" height="50" relative="1" as="geometry">
            <mxPoint x="40" y="560" as="sourcePoint" />
            <mxPoint x="120" y="560" as="targetPoint" />
          </mxGeometry>
        </mxCell>
        <mxCell id="lAZP1rvu_MSJ7CvuDxen-9" value="" style="endArrow=classic;html=1;rounded=0;" parent="1" edge="1">
          <mxGeometry width="50" height="50" relative="1" as="geometry">
            <mxPoint x="40" y="600" as="sourcePoint" />
            <mxPoint x="120" y="600" as="targetPoint" />
          </mxGeometry>
        </mxCell>
        <mxCell id="lAZP1rvu_MSJ7CvuDxen-10" value="S1" style="text;html=1;align=center;verticalAlign=middle;whiteSpace=wrap;rounded=0;" parent="1" vertex="1">
          <mxGeometry x="-10" y="330" width="60" height="30" as="geometry" />
        </mxCell>
        <mxCell id="lAZP1rvu_MSJ7CvuDxen-11" value="S2" style="text;html=1;align=center;verticalAlign=middle;whiteSpace=wrap;rounded=0;" parent="1" vertex="1">
          <mxGeometry x="-10" y="370" width="60" height="30" as="geometry" />
        </mxCell>
        <mxCell id="lAZP1rvu_MSJ7CvuDxen-12" value="S3" style="text;html=1;align=center;verticalAlign=middle;whiteSpace=wrap;rounded=0;" parent="1" vertex="1">
          <mxGeometry x="-10" y="410" width="60" height="30" as="geometry" />
        </mxCell>
        <mxCell id="lAZP1rvu_MSJ7CvuDxen-13" value="S4" style="text;html=1;align=center;verticalAlign=middle;whiteSpace=wrap;rounded=0;" parent="1" vertex="1">
          <mxGeometry x="-10" y="450" width="60" height="30" as="geometry" />
        </mxCell>
        <mxCell id="lAZP1rvu_MSJ7CvuDxen-14" value="S5" style="text;html=1;align=center;verticalAlign=middle;whiteSpace=wrap;rounded=0;" parent="1" vertex="1">
          <mxGeometry x="-10" y="490" width="60" height="30" as="geometry" />
        </mxCell>
        <mxCell id="lAZP1rvu_MSJ7CvuDxen-15" value="S6" style="text;html=1;align=center;verticalAlign=middle;whiteSpace=wrap;rounded=0;" parent="1" vertex="1">
          <mxGeometry x="-10" y="530" width="60" height="30" as="geometry" />
        </mxCell>
        <mxCell id="lAZP1rvu_MSJ7CvuDxen-16" value="S7" style="text;html=1;align=center;verticalAlign=middle;whiteSpace=wrap;rounded=0;" parent="1" vertex="1">
          <mxGeometry x="-10" y="570" width="60" height="30" as="geometry" />
        </mxCell>
        <mxCell id="lAZP1rvu_MSJ7CvuDxen-17" value="SortAscending7(Row 6)" style="rounded=0;whiteSpace=wrap;html=1;container=1;" parent="1" vertex="1">
          <mxGeometry x="120" y="680" width="130" height="270" as="geometry" />
        </mxCell>
        <mxCell id="lAZP1rvu_MSJ7CvuDxen-18" value="" style="endArrow=classic;html=1;rounded=0;" parent="1" edge="1">
          <mxGeometry width="50" height="50" relative="1" as="geometry">
            <mxPoint x="40" y="690" as="sourcePoint" />
            <mxPoint x="120" y="690" as="targetPoint" />
          </mxGeometry>
        </mxCell>
        <mxCell id="lAZP1rvu_MSJ7CvuDxen-19" value="" style="endArrow=classic;html=1;rounded=0;" parent="1" edge="1">
          <mxGeometry width="50" height="50" relative="1" as="geometry">
            <mxPoint x="40" y="730" as="sourcePoint" />
            <mxPoint x="120" y="730" as="targetPoint" />
          </mxGeometry>
        </mxCell>
        <mxCell id="lAZP1rvu_MSJ7CvuDxen-20" value="" style="endArrow=classic;html=1;rounded=0;" parent="1" edge="1">
          <mxGeometry width="50" height="50" relative="1" as="geometry">
            <mxPoint x="40" y="770" as="sourcePoint" />
            <mxPoint x="120" y="770" as="targetPoint" />
          </mxGeometry>
        </mxCell>
        <mxCell id="lAZP1rvu_MSJ7CvuDxen-21" value="" style="endArrow=classic;html=1;rounded=0;" parent="1" edge="1">
          <mxGeometry width="50" height="50" relative="1" as="geometry">
            <mxPoint x="40" y="810" as="sourcePoint" />
            <mxPoint x="120" y="810" as="targetPoint" />
          </mxGeometry>
        </mxCell>
        <mxCell id="lAZP1rvu_MSJ7CvuDxen-22" value="" style="endArrow=classic;html=1;rounded=0;" parent="1" edge="1">
          <mxGeometry width="50" height="50" relative="1" as="geometry">
            <mxPoint x="40" y="850" as="sourcePoint" />
            <mxPoint x="120" y="850" as="targetPoint" />
          </mxGeometry>
        </mxCell>
        <mxCell id="lAZP1rvu_MSJ7CvuDxen-23" value="" style="endArrow=classic;html=1;rounded=0;" parent="1" edge="1">
          <mxGeometry width="50" height="50" relative="1" as="geometry">
            <mxPoint x="40" y="890" as="sourcePoint" />
            <mxPoint x="120" y="890" as="targetPoint" />
          </mxGeometry>
        </mxCell>
        <mxCell id="lAZP1rvu_MSJ7CvuDxen-24" value="" style="endArrow=classic;html=1;rounded=0;" parent="1" edge="1">
          <mxGeometry width="50" height="50" relative="1" as="geometry">
            <mxPoint x="40" y="930" as="sourcePoint" />
            <mxPoint x="120" y="930" as="targetPoint" />
          </mxGeometry>
        </mxCell>
        <mxCell id="lAZP1rvu_MSJ7CvuDxen-25" value="S43" style="text;html=1;align=center;verticalAlign=middle;whiteSpace=wrap;rounded=0;" parent="1" vertex="1">
          <mxGeometry x="-10" y="660" width="60" height="30" as="geometry" />
        </mxCell>
        <mxCell id="lAZP1rvu_MSJ7CvuDxen-26" value="S44" style="text;html=1;align=center;verticalAlign=middle;whiteSpace=wrap;rounded=0;" parent="1" vertex="1">
          <mxGeometry x="-10" y="700" width="60" height="30" as="geometry" />
        </mxCell>
        <mxCell id="lAZP1rvu_MSJ7CvuDxen-27" value="S45" style="text;html=1;align=center;verticalAlign=middle;whiteSpace=wrap;rounded=0;" parent="1" vertex="1">
          <mxGeometry x="-10" y="740" width="60" height="30" as="geometry" />
        </mxCell>
        <mxCell id="lAZP1rvu_MSJ7CvuDxen-28" value="S46" style="text;html=1;align=center;verticalAlign=middle;whiteSpace=wrap;rounded=0;" parent="1" vertex="1">
          <mxGeometry x="-10" y="780" width="60" height="30" as="geometry" />
        </mxCell>
        <mxCell id="lAZP1rvu_MSJ7CvuDxen-29" value="S47" style="text;html=1;align=center;verticalAlign=middle;whiteSpace=wrap;rounded=0;" parent="1" vertex="1">
          <mxGeometry x="-10" y="820" width="60" height="30" as="geometry" />
        </mxCell>
        <mxCell id="lAZP1rvu_MSJ7CvuDxen-30" value="S48" style="text;html=1;align=center;verticalAlign=middle;whiteSpace=wrap;rounded=0;" parent="1" vertex="1">
          <mxGeometry x="-10" y="860" width="60" height="30" as="geometry" />
        </mxCell>
        <mxCell id="lAZP1rvu_MSJ7CvuDxen-31" value="S49" style="text;html=1;align=center;verticalAlign=middle;whiteSpace=wrap;rounded=0;" parent="1" vertex="1">
          <mxGeometry x="-10" y="900" width="60" height="30" as="geometry" />
        </mxCell>
        <mxCell id="lAZP1rvu_MSJ7CvuDxen-32" value="......" style="text;html=1;align=center;verticalAlign=middle;whiteSpace=wrap;rounded=0;direction=north;rotation=90;" parent="1" vertex="1">
          <mxGeometry x="80" y="620" width="50" height="60" as="geometry" />
        </mxCell>
        <mxCell id="lAZP1rvu_MSJ7CvuDxen-33" value="SortAscending7(Col 0)" style="rounded=0;whiteSpace=wrap;html=1;" parent="1" vertex="1">
          <mxGeometry x="425" y="350" width="130" height="270" as="geometry" />
        </mxCell>
        <mxCell id="lAZP1rvu_MSJ7CvuDxen-34" value="" style="endArrow=classic;html=1;rounded=0;exitX=0.994;exitY=0.04;exitDx=0;exitDy=0;exitPerimeter=0;entryX=0.008;entryY=0.037;entryDx=0;entryDy=0;entryPerimeter=0;" parent="1" source="lAZP1rvu_MSJ7CvuDxen-2" target="lAZP1rvu_MSJ7CvuDxen-33" edge="1">
          <mxGeometry width="50" height="50" relative="1" as="geometry">
            <mxPoint x="260" y="410" as="sourcePoint" />
            <mxPoint x="420" y="360" as="targetPoint" />
          </mxGeometry>
        </mxCell>
        <mxCell id="lAZP1rvu_MSJ7CvuDxen-35" value="SortAscending7(Col 6)" style="rounded=0;whiteSpace=wrap;html=1;" parent="1" vertex="1">
          <mxGeometry x="425" y="680" width="130" height="270" as="geometry" />
        </mxCell>
        <mxCell id="lAZP1rvu_MSJ7CvuDxen-40" value="" style="endArrow=classic;html=1;rounded=0;exitX=0.995;exitY=0.149;exitDx=0;exitDy=0;exitPerimeter=0;entryX=0.01;entryY=0.929;entryDx=0;entryDy=0;entryPerimeter=0;" parent="1" source="lAZP1rvu_MSJ7CvuDxen-17" target="lAZP1rvu_MSJ7CvuDxen-33" edge="1">
          <mxGeometry width="50" height="50" relative="1" as="geometry">
            <mxPoint x="300" y="679.17" as="sourcePoint" />
            <mxPoint x="380" y="679.17" as="targetPoint" />
            <Array as="points">
              <mxPoint x="310" y="720" />
              <mxPoint x="350" y="600" />
            </Array>
          </mxGeometry>
        </mxCell>
        <mxCell id="lAZP1rvu_MSJ7CvuDxen-41" value="......" style="text;html=1;align=center;verticalAlign=middle;whiteSpace=wrap;rounded=0;direction=north;rotation=90;" parent="1" vertex="1">
          <mxGeometry x="470" y="620" width="50" height="60" as="geometry" />
        </mxCell>
        <mxCell id="lAZP1rvu_MSJ7CvuDxen-42" value="" style="endArrow=classic;html=1;rounded=0;entryX=-0.024;entryY=0.154;entryDx=0;entryDy=0;entryPerimeter=0;exitX=1.008;exitY=0.927;exitDx=0;exitDy=0;exitPerimeter=0;" parent="1" source="lAZP1rvu_MSJ7CvuDxen-2" target="lAZP1rvu_MSJ7CvuDxen-35" edge="1">
          <mxGeometry width="50" height="50" relative="1" as="geometry">
            <mxPoint x="260" y="650" as="sourcePoint" />
            <mxPoint x="310" y="600" as="targetPoint" />
            <Array as="points">
              <mxPoint x="320" y="600" />
              <mxPoint x="360" y="720" />
            </Array>
          </mxGeometry>
        </mxCell>
        <mxCell id="lAZP1rvu_MSJ7CvuDxen-106" value="Median_5x5_calc" style="rounded=0;whiteSpace=wrap;html=1;" parent="1" vertex="1">
          <mxGeometry x="1180" y="550" width="210" height="220" as="geometry" />
        </mxCell>
        <mxCell id="lAZP1rvu_MSJ7CvuDxen-107" value="" style="endArrow=classic;html=1;rounded=0;exitX=1;exitY=0.667;exitDx=0;exitDy=0;exitPerimeter=0;" parent="1" source="lAZP1rvu_MSJ7CvuDxen-33" edge="1">
          <mxGeometry width="50" height="50" relative="1" as="geometry">
            <mxPoint x="560" y="530" as="sourcePoint" />
            <mxPoint x="710" y="530" as="targetPoint" />
          </mxGeometry>
        </mxCell>
        <mxCell id="lAZP1rvu_MSJ7CvuDxen-109" value="" style="endArrow=classic;html=1;rounded=0;exitX=0.998;exitY=0.147;exitDx=0;exitDy=0;exitPerimeter=0;" parent="1" source="lAZP1rvu_MSJ7CvuDxen-35" edge="1">
          <mxGeometry width="50" height="50" relative="1" as="geometry">
            <mxPoint x="555" y="717.86" as="sourcePoint" />
            <mxPoint x="710" y="720" as="targetPoint" />
          </mxGeometry>
        </mxCell>
        <mxCell id="lAZP1rvu_MSJ7CvuDxen-137" value="" style="endArrow=classic;html=1;rounded=0;exitX=1.002;exitY=0.547;exitDx=0;exitDy=0;exitPerimeter=0;" parent="1" source="lAZP1rvu_MSJ7CvuDxen-106" edge="1">
          <mxGeometry width="50" height="50" relative="1" as="geometry">
            <mxPoint x="918" y="645" as="sourcePoint" />
            <mxPoint x="1520" y="670" as="targetPoint" />
          </mxGeometry>
        </mxCell>
        <mxCell id="lAZP1rvu_MSJ7CvuDxen-140" value="median_o" style="text;html=1;align=center;verticalAlign=middle;whiteSpace=wrap;rounded=0;" parent="1" vertex="1">
          <mxGeometry x="1530" y="650" width="60" height="30" as="geometry" />
        </mxCell>
        <mxCell id="lAZP1rvu_MSJ7CvuDxen-146" value="SortAscending7" style="rounded=0;whiteSpace=wrap;html=1;" parent="1" vertex="1">
          <mxGeometry x="279" y="-131.06" width="120" height="290" as="geometry" />
        </mxCell>
        <mxCell id="lAZP1rvu_MSJ7CvuDxen-148" value="" style="endArrow=classic;html=1;rounded=0;" parent="1" edge="1">
          <mxGeometry width="50" height="50" relative="1" as="geometry">
            <mxPoint x="199" y="-111.06" as="sourcePoint" />
            <mxPoint x="279" y="-111.06" as="targetPoint" />
          </mxGeometry>
        </mxCell>
        <mxCell id="lAZP1rvu_MSJ7CvuDxen-149" value="" style="endArrow=classic;html=1;rounded=0;" parent="1" edge="1">
          <mxGeometry width="50" height="50" relative="1" as="geometry">
            <mxPoint x="199" y="-71.06" as="sourcePoint" />
            <mxPoint x="279" y="-71.06" as="targetPoint" />
          </mxGeometry>
        </mxCell>
        <mxCell id="lAZP1rvu_MSJ7CvuDxen-150" value="" style="endArrow=classic;html=1;rounded=0;" parent="1" edge="1">
          <mxGeometry width="50" height="50" relative="1" as="geometry">
            <mxPoint x="199" y="-31.060000000000002" as="sourcePoint" />
            <mxPoint x="279" y="-31.060000000000002" as="targetPoint" />
          </mxGeometry>
        </mxCell>
        <mxCell id="lAZP1rvu_MSJ7CvuDxen-151" value="" style="endArrow=classic;html=1;rounded=0;" parent="1" edge="1">
          <mxGeometry width="50" height="50" relative="1" as="geometry">
            <mxPoint x="199" y="8.939999999999998" as="sourcePoint" />
            <mxPoint x="279" y="8.939999999999998" as="targetPoint" />
          </mxGeometry>
        </mxCell>
        <mxCell id="lAZP1rvu_MSJ7CvuDxen-152" value="" style="endArrow=classic;html=1;rounded=0;" parent="1" edge="1">
          <mxGeometry width="50" height="50" relative="1" as="geometry">
            <mxPoint x="199" y="48.94" as="sourcePoint" />
            <mxPoint x="279" y="48.94" as="targetPoint" />
          </mxGeometry>
        </mxCell>
        <mxCell id="lAZP1rvu_MSJ7CvuDxen-153" value="" style="endArrow=classic;html=1;rounded=0;" parent="1" edge="1">
          <mxGeometry width="50" height="50" relative="1" as="geometry">
            <mxPoint x="199" y="88.94" as="sourcePoint" />
            <mxPoint x="279" y="88.94" as="targetPoint" />
          </mxGeometry>
        </mxCell>
        <mxCell id="lAZP1rvu_MSJ7CvuDxen-154" value="" style="endArrow=classic;html=1;rounded=0;" parent="1" edge="1">
          <mxGeometry width="50" height="50" relative="1" as="geometry">
            <mxPoint x="199" y="128.94" as="sourcePoint" />
            <mxPoint x="279" y="128.94" as="targetPoint" />
          </mxGeometry>
        </mxCell>
        <mxCell id="lAZP1rvu_MSJ7CvuDxen-155" value="S1" style="text;html=1;align=center;verticalAlign=middle;whiteSpace=wrap;rounded=0;" parent="1" vertex="1">
          <mxGeometry x="149" y="-141.06" width="60" height="30" as="geometry" />
        </mxCell>
        <mxCell id="lAZP1rvu_MSJ7CvuDxen-156" value="S2" style="text;html=1;align=center;verticalAlign=middle;whiteSpace=wrap;rounded=0;" parent="1" vertex="1">
          <mxGeometry x="149" y="-101.06" width="60" height="30" as="geometry" />
        </mxCell>
        <mxCell id="lAZP1rvu_MSJ7CvuDxen-157" value="S3" style="text;html=1;align=center;verticalAlign=middle;whiteSpace=wrap;rounded=0;" parent="1" vertex="1">
          <mxGeometry x="149" y="-61.06" width="60" height="30" as="geometry" />
        </mxCell>
        <mxCell id="lAZP1rvu_MSJ7CvuDxen-158" value="S4" style="text;html=1;align=center;verticalAlign=middle;whiteSpace=wrap;rounded=0;" parent="1" vertex="1">
          <mxGeometry x="149" y="-21.060000000000002" width="60" height="30" as="geometry" />
        </mxCell>
        <mxCell id="lAZP1rvu_MSJ7CvuDxen-159" value="S5" style="text;html=1;align=center;verticalAlign=middle;whiteSpace=wrap;rounded=0;" parent="1" vertex="1">
          <mxGeometry x="149" y="18.939999999999998" width="60" height="30" as="geometry" />
        </mxCell>
        <mxCell id="lAZP1rvu_MSJ7CvuDxen-160" value="S6" style="text;html=1;align=center;verticalAlign=middle;whiteSpace=wrap;rounded=0;" parent="1" vertex="1">
          <mxGeometry x="149" y="58.94" width="60" height="30" as="geometry" />
        </mxCell>
        <mxCell id="lAZP1rvu_MSJ7CvuDxen-161" value="S7" style="text;html=1;align=center;verticalAlign=middle;whiteSpace=wrap;rounded=0;" parent="1" vertex="1">
          <mxGeometry x="149" y="98.94" width="60" height="30" as="geometry" />
        </mxCell>
        <mxCell id="lAZP1rvu_MSJ7CvuDxen-184" value="" style="endArrow=classic;html=1;rounded=0;" parent="1" edge="1">
          <mxGeometry width="50" height="50" relative="1" as="geometry">
            <mxPoint x="399" y="-111.06" as="sourcePoint" />
            <mxPoint x="479" y="-111.06" as="targetPoint" />
          </mxGeometry>
        </mxCell>
        <mxCell id="lAZP1rvu_MSJ7CvuDxen-185" value="" style="endArrow=classic;html=1;rounded=0;" parent="1" edge="1">
          <mxGeometry width="50" height="50" relative="1" as="geometry">
            <mxPoint x="399" y="-71.06" as="sourcePoint" />
            <mxPoint x="479" y="-71.06" as="targetPoint" />
          </mxGeometry>
        </mxCell>
        <mxCell id="lAZP1rvu_MSJ7CvuDxen-186" value="" style="endArrow=classic;html=1;rounded=0;" parent="1" edge="1">
          <mxGeometry width="50" height="50" relative="1" as="geometry">
            <mxPoint x="399" y="-31.060000000000002" as="sourcePoint" />
            <mxPoint x="479" y="-31.060000000000002" as="targetPoint" />
          </mxGeometry>
        </mxCell>
        <mxCell id="lAZP1rvu_MSJ7CvuDxen-187" value="" style="endArrow=classic;html=1;rounded=0;" parent="1" edge="1">
          <mxGeometry width="50" height="50" relative="1" as="geometry">
            <mxPoint x="399" y="8.939999999999998" as="sourcePoint" />
            <mxPoint x="479" y="8.939999999999998" as="targetPoint" />
          </mxGeometry>
        </mxCell>
        <mxCell id="lAZP1rvu_MSJ7CvuDxen-188" value="" style="endArrow=classic;html=1;rounded=0;" parent="1" edge="1">
          <mxGeometry width="50" height="50" relative="1" as="geometry">
            <mxPoint x="399" y="48.94" as="sourcePoint" />
            <mxPoint x="479" y="48.94" as="targetPoint" />
          </mxGeometry>
        </mxCell>
        <mxCell id="lAZP1rvu_MSJ7CvuDxen-189" value="" style="endArrow=classic;html=1;rounded=0;" parent="1" edge="1">
          <mxGeometry width="50" height="50" relative="1" as="geometry">
            <mxPoint x="399" y="88.94" as="sourcePoint" />
            <mxPoint x="479" y="88.94" as="targetPoint" />
          </mxGeometry>
        </mxCell>
        <mxCell id="lAZP1rvu_MSJ7CvuDxen-190" value="" style="endArrow=classic;html=1;rounded=0;" parent="1" edge="1">
          <mxGeometry width="50" height="50" relative="1" as="geometry">
            <mxPoint x="399" y="128.94" as="sourcePoint" />
            <mxPoint x="479" y="128.94" as="targetPoint" />
          </mxGeometry>
        </mxCell>
        <mxCell id="lAZP1rvu_MSJ7CvuDxen-199" value="min" style="text;html=1;align=center;verticalAlign=middle;whiteSpace=wrap;rounded=0;" parent="1" vertex="1">
          <mxGeometry x="460" y="-141.06" width="60" height="30" as="geometry" />
        </mxCell>
        <mxCell id="lAZP1rvu_MSJ7CvuDxen-200" value="out2" style="text;html=1;align=center;verticalAlign=middle;whiteSpace=wrap;rounded=0;" parent="1" vertex="1">
          <mxGeometry x="460" y="-101.06" width="60" height="30" as="geometry" />
        </mxCell>
        <mxCell id="lAZP1rvu_MSJ7CvuDxen-201" value="out3" style="text;html=1;align=center;verticalAlign=middle;whiteSpace=wrap;rounded=0;" parent="1" vertex="1">
          <mxGeometry x="460" y="-61.06" width="60" height="30" as="geometry" />
        </mxCell>
        <mxCell id="lAZP1rvu_MSJ7CvuDxen-202" value="mid" style="text;html=1;align=center;verticalAlign=middle;whiteSpace=wrap;rounded=0;" parent="1" vertex="1">
          <mxGeometry x="460" y="-21.060000000000002" width="60" height="30" as="geometry" />
        </mxCell>
        <mxCell id="lAZP1rvu_MSJ7CvuDxen-203" value="out5" style="text;html=1;align=center;verticalAlign=middle;whiteSpace=wrap;rounded=0;" parent="1" vertex="1">
          <mxGeometry x="460" y="18.939999999999998" width="60" height="30" as="geometry" />
        </mxCell>
        <mxCell id="lAZP1rvu_MSJ7CvuDxen-204" value="out6" style="text;html=1;align=center;verticalAlign=middle;whiteSpace=wrap;rounded=0;" parent="1" vertex="1">
          <mxGeometry x="460" y="58.94" width="60" height="30" as="geometry" />
        </mxCell>
        <mxCell id="lAZP1rvu_MSJ7CvuDxen-205" value="max" style="text;html=1;align=center;verticalAlign=middle;whiteSpace=wrap;rounded=0;" parent="1" vertex="1">
          <mxGeometry x="460" y="98.94" width="60" height="30" as="geometry" />
        </mxCell>
        <mxCell id="lAZP1rvu_MSJ7CvuDxen-207" value="SortAcsending5" style="rounded=0;whiteSpace=wrap;html=1;" parent="1" vertex="1">
          <mxGeometry x="870" y="-241.06" width="120" height="240" as="geometry" />
        </mxCell>
        <mxCell id="lAZP1rvu_MSJ7CvuDxen-208" value="" style="endArrow=classic;html=1;rounded=0;" parent="1" edge="1">
          <mxGeometry width="50" height="50" relative="1" as="geometry">
            <mxPoint x="790" y="-201.76999999999998" as="sourcePoint" />
            <mxPoint x="870" y="-201.76999999999998" as="targetPoint" />
          </mxGeometry>
        </mxCell>
        <mxCell id="lAZP1rvu_MSJ7CvuDxen-209" value="" style="endArrow=classic;html=1;rounded=0;" parent="1" edge="1">
          <mxGeometry width="50" height="50" relative="1" as="geometry">
            <mxPoint x="790" y="-161.76999999999998" as="sourcePoint" />
            <mxPoint x="870" y="-161.76999999999998" as="targetPoint" />
          </mxGeometry>
        </mxCell>
        <mxCell id="lAZP1rvu_MSJ7CvuDxen-210" value="" style="endArrow=classic;html=1;rounded=0;" parent="1" edge="1">
          <mxGeometry width="50" height="50" relative="1" as="geometry">
            <mxPoint x="790" y="-121.77" as="sourcePoint" />
            <mxPoint x="870" y="-121.77" as="targetPoint" />
          </mxGeometry>
        </mxCell>
        <mxCell id="lAZP1rvu_MSJ7CvuDxen-211" value="" style="endArrow=classic;html=1;rounded=0;" parent="1" edge="1">
          <mxGeometry width="50" height="50" relative="1" as="geometry">
            <mxPoint x="790" y="-81.77" as="sourcePoint" />
            <mxPoint x="870" y="-81.77" as="targetPoint" />
          </mxGeometry>
        </mxCell>
        <mxCell id="lAZP1rvu_MSJ7CvuDxen-212" value="" style="endArrow=classic;html=1;rounded=0;" parent="1" edge="1">
          <mxGeometry width="50" height="50" relative="1" as="geometry">
            <mxPoint x="790" y="-41.769999999999996" as="sourcePoint" />
            <mxPoint x="870" y="-41.769999999999996" as="targetPoint" />
          </mxGeometry>
        </mxCell>
        <mxCell id="lAZP1rvu_MSJ7CvuDxen-213" value="S1" style="text;html=1;align=center;verticalAlign=middle;whiteSpace=wrap;rounded=0;" parent="1" vertex="1">
          <mxGeometry x="740" y="-231.76999999999998" width="60" height="30" as="geometry" />
        </mxCell>
        <mxCell id="lAZP1rvu_MSJ7CvuDxen-214" value="S2" style="text;html=1;align=center;verticalAlign=middle;whiteSpace=wrap;rounded=0;" parent="1" vertex="1">
          <mxGeometry x="740" y="-191.76999999999998" width="60" height="30" as="geometry" />
        </mxCell>
        <mxCell id="lAZP1rvu_MSJ7CvuDxen-215" value="S3" style="text;html=1;align=center;verticalAlign=middle;whiteSpace=wrap;rounded=0;" parent="1" vertex="1">
          <mxGeometry x="740" y="-151.76999999999998" width="60" height="30" as="geometry" />
        </mxCell>
        <mxCell id="lAZP1rvu_MSJ7CvuDxen-216" value="S4" style="text;html=1;align=center;verticalAlign=middle;whiteSpace=wrap;rounded=0;" parent="1" vertex="1">
          <mxGeometry x="740" y="-111.77" width="60" height="30" as="geometry" />
        </mxCell>
        <mxCell id="lAZP1rvu_MSJ7CvuDxen-217" value="S5" style="text;html=1;align=center;verticalAlign=middle;whiteSpace=wrap;rounded=0;" parent="1" vertex="1">
          <mxGeometry x="740" y="-71.77" width="60" height="30" as="geometry" />
        </mxCell>
        <mxCell id="lAZP1rvu_MSJ7CvuDxen-218" value="SortAcsending5" style="rounded=0;whiteSpace=wrap;html=1;" parent="1" vertex="1">
          <mxGeometry x="1170" y="-106.06" width="120" height="265" as="geometry" />
        </mxCell>
        <mxCell id="lAZP1rvu_MSJ7CvuDxen-219" value="" style="endArrow=classic;html=1;rounded=0;" parent="1" edge="1">
          <mxGeometry width="50" height="50" relative="1" as="geometry">
            <mxPoint x="1050" y="118.94" as="sourcePoint" />
            <mxPoint x="1168" y="118.94" as="targetPoint" />
          </mxGeometry>
        </mxCell>
        <mxCell id="lAZP1rvu_MSJ7CvuDxen-220" value="" style="endArrow=classic;html=1;rounded=0;entryX=-0.001;entryY=0.695;entryDx=0;entryDy=0;entryPerimeter=0;" parent="1" target="lAZP1rvu_MSJ7CvuDxen-218" edge="1">
          <mxGeometry width="50" height="50" relative="1" as="geometry">
            <mxPoint x="1050" y="78.94" as="sourcePoint" />
            <mxPoint x="1090" y="78.94" as="targetPoint" />
          </mxGeometry>
        </mxCell>
        <mxCell id="lAZP1rvu_MSJ7CvuDxen-223" value="S7" style="text;html=1;align=center;verticalAlign=middle;whiteSpace=wrap;rounded=0;" parent="1" vertex="1">
          <mxGeometry x="1055.5" y="88.94" width="60" height="30" as="geometry" />
        </mxCell>
        <mxCell id="lAZP1rvu_MSJ7CvuDxen-226" value="S6" style="text;html=1;align=center;verticalAlign=middle;whiteSpace=wrap;rounded=0;" parent="1" vertex="1">
          <mxGeometry x="1055.5" y="48.94" width="60" height="30" as="geometry" />
        </mxCell>
        <mxCell id="lAZP1rvu_MSJ7CvuDxen-227" value="" style="endArrow=classic;html=1;rounded=0;entryX=0.006;entryY=0.096;entryDx=0;entryDy=0;entryPerimeter=0;" parent="1" target="lAZP1rvu_MSJ7CvuDxen-218" edge="1">
          <mxGeometry width="50" height="50" relative="1" as="geometry">
            <mxPoint x="990" y="-81.06" as="sourcePoint" />
            <mxPoint x="1100" y="-71.06" as="targetPoint" />
          </mxGeometry>
        </mxCell>
        <mxCell id="lAZP1rvu_MSJ7CvuDxen-228" value="" style="endArrow=classic;html=1;rounded=0;entryX=0.006;entryY=0.096;entryDx=0;entryDy=0;entryPerimeter=0;" parent="1" edge="1">
          <mxGeometry width="50" height="50" relative="1" as="geometry">
            <mxPoint x="990" y="-66.2" as="sourcePoint" />
            <mxPoint x="1171" y="-66.2" as="targetPoint" />
          </mxGeometry>
        </mxCell>
        <mxCell id="lAZP1rvu_MSJ7CvuDxen-229" value="" style="endArrow=classic;html=1;rounded=0;entryX=0.006;entryY=0.096;entryDx=0;entryDy=0;entryPerimeter=0;" parent="1" edge="1">
          <mxGeometry width="50" height="50" relative="1" as="geometry">
            <mxPoint x="990" y="-41.06" as="sourcePoint" />
            <mxPoint x="1171" y="-41.06" as="targetPoint" />
          </mxGeometry>
        </mxCell>
        <mxCell id="lAZP1rvu_MSJ7CvuDxen-231" value="SortingNetwork" style="rounded=0;whiteSpace=wrap;html=1;" parent="1" vertex="1">
          <mxGeometry x="1370" y="-273.19" width="100" height="121.42" as="geometry" />
        </mxCell>
        <mxCell id="lAZP1rvu_MSJ7CvuDxen-232" value="" style="endArrow=classic;html=1;rounded=0;exitX=1;exitY=0.053;exitDx=0;exitDy=0;exitPerimeter=0;entryX=0.002;entryY=0.35;entryDx=0;entryDy=0;entryPerimeter=0;" parent="1" source="lAZP1rvu_MSJ7CvuDxen-207" target="lAZP1rvu_MSJ7CvuDxen-231" edge="1">
          <mxGeometry width="50" height="50" relative="1" as="geometry">
            <mxPoint x="1070" y="-181.77" as="sourcePoint" />
            <mxPoint x="1120" y="-231.77" as="targetPoint" />
          </mxGeometry>
        </mxCell>
        <mxCell id="lAZP1rvu_MSJ7CvuDxen-233" value="" style="endArrow=classic;html=1;rounded=0;exitX=1;exitY=0.053;exitDx=0;exitDy=0;exitPerimeter=0;entryX=0.002;entryY=0.35;entryDx=0;entryDy=0;entryPerimeter=0;" parent="1" edge="1">
          <mxGeometry width="50" height="50" relative="1" as="geometry">
            <mxPoint x="990" y="-210.98" as="sourcePoint" />
            <mxPoint x="1370" y="-213.98" as="targetPoint" />
          </mxGeometry>
        </mxCell>
        <mxCell id="lAZP1rvu_MSJ7CvuDxen-234" value="" style="endArrow=classic;html=1;rounded=0;exitX=0.997;exitY=0.094;exitDx=0;exitDy=0;exitPerimeter=0;" parent="1" source="lAZP1rvu_MSJ7CvuDxen-218" edge="1">
          <mxGeometry width="50" height="50" relative="1" as="geometry">
            <mxPoint x="1320" y="-96.06" as="sourcePoint" />
            <mxPoint x="1369" y="-161.06" as="targetPoint" />
            <Array as="points">
              <mxPoint x="1330" y="-81.06" />
              <mxPoint x="1330" y="-161.06" />
            </Array>
          </mxGeometry>
        </mxCell>
        <mxCell id="lAZP1rvu_MSJ7CvuDxen-235" value="" style="endArrow=classic;html=1;rounded=0;exitX=1.003;exitY=0.847;exitDx=0;exitDy=0;exitPerimeter=0;" parent="1" source="lAZP1rvu_MSJ7CvuDxen-218" edge="1">
          <mxGeometry width="50" height="50" relative="1" as="geometry">
            <mxPoint x="1370" y="118.94" as="sourcePoint" />
            <mxPoint x="1670" y="120" as="targetPoint" />
            <Array as="points">
              <mxPoint x="1370" y="118.94" />
            </Array>
          </mxGeometry>
        </mxCell>
        <mxCell id="lAZP1rvu_MSJ7CvuDxen-236" value="" style="endArrow=classic;html=1;rounded=0;exitX=1.003;exitY=0.847;exitDx=0;exitDy=0;exitPerimeter=0;" parent="1" edge="1">
          <mxGeometry width="50" height="50" relative="1" as="geometry">
            <mxPoint x="1290" y="78.94" as="sourcePoint" />
            <mxPoint x="1670" y="80" as="targetPoint" />
            <Array as="points">
              <mxPoint x="1410" y="78.94" />
            </Array>
          </mxGeometry>
        </mxCell>
        <mxCell id="lAZP1rvu_MSJ7CvuDxen-237" value="max" style="text;html=1;align=center;verticalAlign=middle;whiteSpace=wrap;rounded=0;" parent="1" vertex="1">
          <mxGeometry x="1670" y="98.94" width="60" height="30" as="geometry" />
        </mxCell>
        <mxCell id="lAZP1rvu_MSJ7CvuDxen-238" value="out6" style="text;html=1;align=center;verticalAlign=middle;whiteSpace=wrap;rounded=0;" parent="1" vertex="1">
          <mxGeometry x="1670" y="58.94" width="60" height="30" as="geometry" />
        </mxCell>
        <mxCell id="lAZP1rvu_MSJ7CvuDxen-239" value="SortingNetwork" style="rounded=0;whiteSpace=wrap;html=1;" parent="1" vertex="1">
          <mxGeometry x="1520" y="-201.76999999999998" width="100" height="121.42" as="geometry" />
        </mxCell>
        <mxCell id="lAZP1rvu_MSJ7CvuDxen-240" value="" style="endArrow=classic;html=1;rounded=0;entryX=0;entryY=0.088;entryDx=0;entryDy=0;entryPerimeter=0;" parent="1" target="lAZP1rvu_MSJ7CvuDxen-239" edge="1">
          <mxGeometry width="50" height="50" relative="1" as="geometry">
            <mxPoint x="1470" y="-240" as="sourcePoint" />
            <mxPoint x="1519.1000000000001" y="-240.91077999999993" as="targetPoint" />
            <Array as="points">
              <mxPoint x="1500" y="-240" />
              <mxPoint x="1500" y="-191.06" />
            </Array>
          </mxGeometry>
        </mxCell>
        <mxCell id="lAZP1rvu_MSJ7CvuDxen-241" value="" style="endArrow=classic;html=1;rounded=0;exitX=1.003;exitY=0.678;exitDx=0;exitDy=0;exitPerimeter=0;entryX=-0.006;entryY=0.091;entryDx=0;entryDy=0;entryPerimeter=0;" parent="1" edge="1">
          <mxGeometry width="50" height="50" relative="1" as="geometry">
            <mxPoint x="1470" y="-161.77" as="sourcePoint" />
            <mxPoint x="1519" y="-161.77" as="targetPoint" />
          </mxGeometry>
        </mxCell>
        <mxCell id="lAZP1rvu_MSJ7CvuDxen-243" value="" style="endArrow=classic;html=1;rounded=0;exitX=0.993;exitY=0.083;exitDx=0;exitDy=0;exitPerimeter=0;entryX=-0.011;entryY=0.123;entryDx=0;entryDy=0;entryPerimeter=0;" parent="1" source="lAZP1rvu_MSJ7CvuDxen-231" edge="1">
          <mxGeometry width="50" height="50" relative="1" as="geometry">
            <mxPoint x="1530" y="-223.19" as="sourcePoint" />
            <mxPoint x="1658.8999999999996" y="-262.5453400000001" as="targetPoint" />
          </mxGeometry>
        </mxCell>
        <mxCell id="lAZP1rvu_MSJ7CvuDxen-244" value="" style="endArrow=classic;html=1;rounded=0;exitX=0.993;exitY=0.083;exitDx=0;exitDy=0;exitPerimeter=0;entryX=0.01;entryY=0.704;entryDx=0;entryDy=0;entryPerimeter=0;" parent="1" edge="1">
          <mxGeometry width="50" height="50" relative="1" as="geometry">
            <mxPoint x="1620" y="-191.77" as="sourcePoint" />
            <mxPoint x="1661" y="-192.0003200000001" as="targetPoint" />
          </mxGeometry>
        </mxCell>
        <mxCell id="lAZP1rvu_MSJ7CvuDxen-245" value="" style="endArrow=classic;html=1;rounded=0;exitX=1.003;exitY=0.847;exitDx=0;exitDy=0;exitPerimeter=0;" parent="1" edge="1">
          <mxGeometry width="50" height="50" relative="1" as="geometry">
            <mxPoint x="1290" y="38.94" as="sourcePoint" />
            <mxPoint x="1670" y="39" as="targetPoint" />
            <Array as="points">
              <mxPoint x="1490" y="38.94" />
            </Array>
          </mxGeometry>
        </mxCell>
        <mxCell id="lAZP1rvu_MSJ7CvuDxen-247" value="" style="endArrow=classic;html=1;rounded=0;exitX=1;exitY=0.25;exitDx=0;exitDy=0;entryX=-0.025;entryY=0.832;entryDx=0;entryDy=0;entryPerimeter=0;" parent="1" source="lAZP1rvu_MSJ7CvuDxen-218" target="lAZP1rvu_MSJ7CvuDxen-239" edge="1">
          <mxGeometry width="50" height="50" relative="1" as="geometry">
            <mxPoint x="1290" y="-46.150000000000006" as="sourcePoint" />
            <mxPoint x="1410" y="-67.4" as="targetPoint" />
            <Array as="points">
              <mxPoint x="1400" y="-41.06" />
              <mxPoint x="1450" y="-101.06" />
            </Array>
          </mxGeometry>
        </mxCell>
        <mxCell id="lAZP1rvu_MSJ7CvuDxen-248" value="" style="endArrow=classic;html=1;rounded=0;exitX=0.995;exitY=0.912;exitDx=0;exitDy=0;exitPerimeter=0;" parent="1" source="lAZP1rvu_MSJ7CvuDxen-239" edge="1">
          <mxGeometry width="50" height="50" relative="1" as="geometry">
            <mxPoint x="1670" y="-111.06" as="sourcePoint" />
            <mxPoint x="1660" y="-90" as="targetPoint" />
            <Array as="points">
              <mxPoint x="1650" y="-91.06" />
            </Array>
          </mxGeometry>
        </mxCell>
        <mxCell id="lAZP1rvu_MSJ7CvuDxen-249" value="out5" style="text;html=1;align=center;verticalAlign=middle;whiteSpace=wrap;rounded=0;" parent="1" vertex="1">
          <mxGeometry x="1660" y="8.939999999999998" width="60" height="30" as="geometry" />
        </mxCell>
        <mxCell id="lAZP1rvu_MSJ7CvuDxen-250" value="mid" style="text;html=1;align=center;verticalAlign=middle;whiteSpace=wrap;rounded=0;" parent="1" vertex="1">
          <mxGeometry x="1660" y="-111.76999999999997" width="60" height="30" as="geometry" />
        </mxCell>
        <mxCell id="lAZP1rvu_MSJ7CvuDxen-251" value="" style="endArrow=classic;html=1;rounded=0;exitX=0.998;exitY=0.323;exitDx=0;exitDy=0;exitPerimeter=0;entryX=-0.009;entryY=0.952;entryDx=0;entryDy=0;entryPerimeter=0;" parent="1" source="lAZP1rvu_MSJ7CvuDxen-239" edge="1">
          <mxGeometry width="50" height="50" relative="1" as="geometry">
            <mxPoint x="1620" y="-101.77000000000001" as="sourcePoint" />
            <mxPoint x="1659.1" y="-161.88816000000043" as="targetPoint" />
          </mxGeometry>
        </mxCell>
        <mxCell id="lAZP1rvu_MSJ7CvuDxen-257" value="min" style="text;html=1;align=center;verticalAlign=middle;whiteSpace=wrap;rounded=0;" parent="1" vertex="1">
          <mxGeometry x="1660" y="-290" width="60" height="30" as="geometry" />
        </mxCell>
        <mxCell id="lAZP1rvu_MSJ7CvuDxen-258" value="out2" style="text;html=1;align=center;verticalAlign=middle;whiteSpace=wrap;rounded=0;" parent="1" vertex="1">
          <mxGeometry x="1660" y="-227.48000000000002" width="60" height="30" as="geometry" />
        </mxCell>
        <mxCell id="lAZP1rvu_MSJ7CvuDxen-259" value="out3" style="text;html=1;align=center;verticalAlign=middle;whiteSpace=wrap;rounded=0;" parent="1" vertex="1">
          <mxGeometry x="1660" y="-181.76999999999998" width="60" height="30" as="geometry" />
        </mxCell>
        <mxCell id="oJ3QWZMt2NWCqgBl0X_o-1" value="" style="endArrow=classic;html=1;rounded=0;exitX=0.998;exitY=0.147;exitDx=0;exitDy=0;exitPerimeter=0;" parent="1" edge="1">
          <mxGeometry width="50" height="50" relative="1" as="geometry">
            <mxPoint x="555" y="480" as="sourcePoint" />
            <mxPoint x="710" y="480" as="targetPoint" />
          </mxGeometry>
        </mxCell>
        <mxCell id="oJ3QWZMt2NWCqgBl0X_o-2" value="" style="endArrow=classic;html=1;rounded=0;exitX=0.998;exitY=0.147;exitDx=0;exitDy=0;exitPerimeter=0;" parent="1" edge="1">
          <mxGeometry width="50" height="50" relative="1" as="geometry">
            <mxPoint x="555" y="760" as="sourcePoint" />
            <mxPoint x="710" y="760" as="targetPoint" />
          </mxGeometry>
        </mxCell>
        <mxCell id="oJ3QWZMt2NWCqgBl0X_o-3" value="" style="endArrow=classic;html=1;rounded=0;exitX=0.998;exitY=0.147;exitDx=0;exitDy=0;exitPerimeter=0;" parent="1" edge="1">
          <mxGeometry width="50" height="50" relative="1" as="geometry">
            <mxPoint x="555" y="360" as="sourcePoint" />
            <mxPoint x="710" y="360" as="targetPoint" />
          </mxGeometry>
        </mxCell>
        <mxCell id="oJ3QWZMt2NWCqgBl0X_o-4" value="......" style="text;html=1;align=center;verticalAlign=middle;whiteSpace=wrap;rounded=0;direction=north;rotation=90;" parent="1" vertex="1">
          <mxGeometry x="570" y="395" width="50" height="60" as="geometry" />
        </mxCell>
        <mxCell id="oJ3QWZMt2NWCqgBl0X_o-5" value="......" style="text;html=1;align=center;verticalAlign=middle;whiteSpace=wrap;rounded=0;direction=north;rotation=90;" parent="1" vertex="1">
          <mxGeometry x="570" y="785" width="50" height="60" as="geometry" />
        </mxCell>
        <mxCell id="oJ3QWZMt2NWCqgBl0X_o-6" value="SortingNetwork" style="rounded=0;whiteSpace=wrap;html=1;" parent="1" vertex="1">
          <mxGeometry x="790" y="468.58000000000004" width="100" height="121.42" as="geometry" />
        </mxCell>
        <mxCell id="oJ3QWZMt2NWCqgBl0X_o-7" value="SortingNetwork" style="rounded=0;whiteSpace=wrap;html=1;" parent="1" vertex="1">
          <mxGeometry x="790" y="723.58" width="100" height="121.42" as="geometry" />
        </mxCell>
        <mxCell id="oJ3QWZMt2NWCqgBl0X_o-9" value="" style="endArrow=classic;html=1;rounded=0;entryX=-0.011;entryY=0.101;entryDx=0;entryDy=0;entryPerimeter=0;fillColor=#d5e8d4;strokeColor=#82b366;" parent="1" target="oJ3QWZMt2NWCqgBl0X_o-6" edge="1">
          <mxGeometry width="50" height="50" relative="1" as="geometry">
            <mxPoint x="560" y="640" as="sourcePoint" />
            <mxPoint x="680" y="590" as="targetPoint" />
            <Array as="points">
              <mxPoint x="720" y="640" />
              <mxPoint x="760" y="480" />
            </Array>
          </mxGeometry>
        </mxCell>
        <mxCell id="oJ3QWZMt2NWCqgBl0X_o-10" value="" style="endArrow=classic;html=1;rounded=0;entryX=-0.01;entryY=0.299;entryDx=0;entryDy=0;entryPerimeter=0;fillColor=#d5e8d4;strokeColor=#82b366;" parent="1" target="oJ3QWZMt2NWCqgBl0X_o-7" edge="1">
          <mxGeometry width="50" height="50" relative="1" as="geometry">
            <mxPoint x="560" y="670" as="sourcePoint" />
            <mxPoint x="795" y="626.3" as="targetPoint" />
            <Array as="points">
              <mxPoint x="720" y="670" />
              <mxPoint x="740" y="760" />
            </Array>
          </mxGeometry>
        </mxCell>
        <mxCell id="oJ3QWZMt2NWCqgBl0X_o-11" value="col2_out3, col3_out2, col4_min" style="text;html=1;align=left;verticalAlign=middle;whiteSpace=wrap;rounded=0;fillColor=#d5e8d4;strokeColor=#82b366;" parent="1" vertex="1">
          <mxGeometry x="650" y="590" width="70" height="40" as="geometry" />
        </mxCell>
        <mxCell id="oJ3QWZMt2NWCqgBl0X_o-12" value="col2_max, col3_out6, col4_out5" style="text;html=1;align=left;verticalAlign=middle;whiteSpace=wrap;rounded=0;fillColor=#d5e8d4;strokeColor=#82b366;" parent="1" vertex="1">
          <mxGeometry x="650" y="673.6999999999999" width="70" height="40" as="geometry" />
        </mxCell>
        <mxCell id="oJ3QWZMt2NWCqgBl0X_o-13" value="" style="endArrow=classic;html=1;rounded=0;exitX=1;exitY=0.75;exitDx=0;exitDy=0;entryX=0;entryY=0.218;entryDx=0;entryDy=0;entryPerimeter=0;" parent="1" source="oJ3QWZMt2NWCqgBl0X_o-6" target="lAZP1rvu_MSJ7CvuDxen-106" edge="1">
          <mxGeometry width="50" height="50" relative="1" as="geometry">
            <mxPoint x="1050" y="600" as="sourcePoint" />
            <mxPoint x="1100" y="550" as="targetPoint" />
            <Array as="points">
              <mxPoint x="960" y="600" />
            </Array>
          </mxGeometry>
        </mxCell>
        <mxCell id="oJ3QWZMt2NWCqgBl0X_o-15" value="" style="endArrow=classic;html=1;rounded=0;exitX=0.994;exitY=0.293;exitDx=0;exitDy=0;entryX=-0.008;entryY=0.777;entryDx=0;entryDy=0;entryPerimeter=0;exitPerimeter=0;" parent="1" source="oJ3QWZMt2NWCqgBl0X_o-7" target="lAZP1rvu_MSJ7CvuDxen-106" edge="1">
          <mxGeometry width="50" height="50" relative="1" as="geometry">
            <mxPoint x="880" y="723.58" as="sourcePoint" />
            <mxPoint x="1170" y="761.58" as="targetPoint" />
            <Array as="points">
              <mxPoint x="960" y="720" />
            </Array>
          </mxGeometry>
        </mxCell>
        <mxCell id="oJ3QWZMt2NWCqgBl0X_o-16" value="......" style="text;html=1;align=center;verticalAlign=middle;whiteSpace=wrap;rounded=0;direction=north;rotation=90;" parent="1" vertex="1">
          <mxGeometry x="920" y="616.3" width="50" height="60" as="geometry" />
        </mxCell>
        <mxCell id="oJ3QWZMt2NWCqgBl0X_o-17" value="" style="endArrow=classic;html=1;rounded=0;" parent="1" edge="1">
          <mxGeometry width="50" height="50" relative="1" as="geometry">
            <mxPoint x="980" y="660" as="sourcePoint" />
            <mxPoint x="1180" y="659.71" as="targetPoint" />
          </mxGeometry>
        </mxCell>
        <mxCell id="1pN2umW8wTObUkx7pI_h-1" value="&lt;span style=&quot;color: rgb(0, 0, 0); font-family: Helvetica; font-style: normal; font-variant-ligatures: normal; font-variant-caps: normal; letter-spacing: normal; orphans: 2; text-align: center; text-indent: 0px; text-transform: none; widows: 2; word-spacing: 0px; -webkit-text-stroke-width: 0px; white-space: normal; background-color: rgb(251, 251, 251); text-decoration-thickness: initial; text-decoration-style: initial; text-decoration-color: initial; float: none; display: inline !important;&quot;&gt;&lt;b style=&quot;&quot;&gt;&lt;font style=&quot;font-size: 22px;&quot;&gt;SortAscending7&lt;/font&gt;&lt;/b&gt;&lt;/span&gt;" style="text;whiteSpace=wrap;html=1;" parent="1" vertex="1">
          <mxGeometry x="1260" y="-420" width="120" height="40" as="geometry" />
        </mxCell>
        <mxCell id="Ysm--PjL4J-Ic120Il5L-13" value="" style="group" parent="1" vertex="1" connectable="0">
          <mxGeometry x="1481" y="-301.06" width="9" height="460" as="geometry" />
        </mxCell>
        <mxCell id="Ysm--PjL4J-Ic120Il5L-8" value="" style="rounded=0;whiteSpace=wrap;html=1;" parent="Ysm--PjL4J-Ic120Il5L-13" vertex="1">
          <mxGeometry width="9" height="460" as="geometry" />
        </mxCell>
        <mxCell id="Ysm--PjL4J-Ic120Il5L-9" value="" style="triangle;whiteSpace=wrap;html=1;rotation=270;" parent="Ysm--PjL4J-Ic120Il5L-13" vertex="1">
          <mxGeometry x="2" y="455" width="5" height="5" as="geometry" />
        </mxCell>
        <mxCell id="Ysm--PjL4J-Ic120Il5L-22" value="" style="group" parent="1" vertex="1" connectable="0">
          <mxGeometry x="1310" y="-300" width="9" height="460" as="geometry" />
        </mxCell>
        <mxCell id="Ysm--PjL4J-Ic120Il5L-23" value="" style="rounded=0;whiteSpace=wrap;html=1;" parent="Ysm--PjL4J-Ic120Il5L-22" vertex="1">
          <mxGeometry width="9" height="460" as="geometry" />
        </mxCell>
        <mxCell id="Ysm--PjL4J-Ic120Il5L-24" value="" style="triangle;whiteSpace=wrap;html=1;rotation=270;" parent="Ysm--PjL4J-Ic120Il5L-22" vertex="1">
          <mxGeometry x="2" y="455" width="5" height="5" as="geometry" />
        </mxCell>
        <mxCell id="Ysm--PjL4J-Ic120Il5L-25" value="" style="group" parent="1" vertex="1" connectable="0">
          <mxGeometry x="1120" y="-301.06" width="9" height="460" as="geometry" />
        </mxCell>
        <mxCell id="Ysm--PjL4J-Ic120Il5L-26" value="" style="rounded=0;whiteSpace=wrap;html=1;" parent="Ysm--PjL4J-Ic120Il5L-25" vertex="1">
          <mxGeometry width="9" height="460" as="geometry" />
        </mxCell>
        <mxCell id="Ysm--PjL4J-Ic120Il5L-27" value="" style="triangle;whiteSpace=wrap;html=1;rotation=270;" parent="Ysm--PjL4J-Ic120Il5L-25" vertex="1">
          <mxGeometry x="2" y="455" width="5" height="5" as="geometry" />
        </mxCell>
        <mxCell id="Ysm--PjL4J-Ic120Il5L-31" value="" style="group" parent="1" vertex="1" connectable="0">
          <mxGeometry x="71" y="500" width="9" height="460" as="geometry" />
        </mxCell>
        <mxCell id="Ysm--PjL4J-Ic120Il5L-32" value="" style="rounded=0;whiteSpace=wrap;html=1;" parent="Ysm--PjL4J-Ic120Il5L-31" vertex="1">
          <mxGeometry y="-170" width="9" height="630" as="geometry" />
        </mxCell>
        <mxCell id="Ysm--PjL4J-Ic120Il5L-33" value="" style="triangle;whiteSpace=wrap;html=1;rotation=270;" parent="Ysm--PjL4J-Ic120Il5L-31" vertex="1">
          <mxGeometry x="2" y="455" width="5" height="5" as="geometry" />
        </mxCell>
        <mxCell id="bzjRj3TlDCHPrHs_g-5d-1" value="" style="rounded=0;whiteSpace=wrap;html=1;" parent="1" vertex="1">
          <mxGeometry x="310" y="325" width="9" height="630" as="geometry" />
        </mxCell>
        <mxCell id="bzjRj3TlDCHPrHs_g-5d-3" value="" style="triangle;whiteSpace=wrap;html=1;rotation=270;" parent="1" vertex="1">
          <mxGeometry x="312" y="950" width="5" height="5" as="geometry" />
        </mxCell>
        <mxCell id="bzjRj3TlDCHPrHs_g-5d-5" value="14+20+4 = 38" style="text;html=1;align=center;verticalAlign=middle;whiteSpace=wrap;rounded=0;" parent="1" vertex="1">
          <mxGeometry x="1540" y="500" width="60" height="30" as="geometry" />
        </mxCell>
        <mxCell id="bzjRj3TlDCHPrHs_g-5d-6" value="" style="rounded=0;whiteSpace=wrap;html=1;" parent="1" vertex="1">
          <mxGeometry x="630" y="340" width="9" height="610" as="geometry" />
        </mxCell>
        <mxCell id="bzjRj3TlDCHPrHs_g-5d-7" value="" style="triangle;whiteSpace=wrap;html=1;rotation=270;" parent="1" vertex="1">
          <mxGeometry x="632" y="945" width="5" height="5" as="geometry" />
        </mxCell>
        <mxCell id="bzjRj3TlDCHPrHs_g-5d-8" value="" style="rounded=0;whiteSpace=wrap;html=1;" parent="1" vertex="1">
          <mxGeometry x="970" y="341.3" width="9" height="610" as="geometry" />
        </mxCell>
        <mxCell id="bzjRj3TlDCHPrHs_g-5d-10" value="" style="triangle;whiteSpace=wrap;html=1;rotation=270;" parent="1" vertex="1">
          <mxGeometry x="972" y="946.3" width="5" height="5" as="geometry" />
        </mxCell>
        <mxCell id="jfEfAhBc7xesXZ9xOc8o-1" value="" style="rounded=0;whiteSpace=wrap;html=1;fontSize=14;" parent="1" vertex="1">
          <mxGeometry x="-720" y="-1080" width="40" height="40" as="geometry" />
        </mxCell>
        <mxCell id="jfEfAhBc7xesXZ9xOc8o-2" value="" style="rounded=0;whiteSpace=wrap;html=1;fontSize=14;" parent="1" vertex="1">
          <mxGeometry x="-720" y="-1040" width="40" height="40" as="geometry" />
        </mxCell>
        <mxCell id="jfEfAhBc7xesXZ9xOc8o-3" value="" style="rounded=0;whiteSpace=wrap;html=1;fontSize=14;" parent="1" vertex="1">
          <mxGeometry x="-720" y="-1000" width="40" height="40" as="geometry" />
        </mxCell>
        <mxCell id="jfEfAhBc7xesXZ9xOc8o-4" value="" style="rounded=0;whiteSpace=wrap;html=1;fontSize=14;" parent="1" vertex="1">
          <mxGeometry x="-720" y="-960" width="40" height="40" as="geometry" />
        </mxCell>
        <mxCell id="jfEfAhBc7xesXZ9xOc8o-5" value="" style="rounded=0;whiteSpace=wrap;html=1;fontSize=14;" parent="1" vertex="1">
          <mxGeometry x="-720" y="-920" width="40" height="40" as="geometry" />
        </mxCell>
        <mxCell id="jfEfAhBc7xesXZ9xOc8o-6" value="" style="rounded=0;whiteSpace=wrap;html=1;fontSize=14;" parent="1" vertex="1">
          <mxGeometry x="-720" y="-880" width="40" height="40" as="geometry" />
        </mxCell>
        <mxCell id="jfEfAhBc7xesXZ9xOc8o-7" value="" style="rounded=0;whiteSpace=wrap;html=1;fontSize=14;" parent="1" vertex="1">
          <mxGeometry x="-720" y="-840" width="40" height="40" as="geometry" />
        </mxCell>
        <mxCell id="jfEfAhBc7xesXZ9xOc8o-8" value="" style="rounded=0;whiteSpace=wrap;html=1;fontSize=14;" parent="1" vertex="1">
          <mxGeometry x="-680" y="-1080" width="40" height="40" as="geometry" />
        </mxCell>
        <mxCell id="jfEfAhBc7xesXZ9xOc8o-9" value="" style="rounded=0;whiteSpace=wrap;html=1;fontSize=14;" parent="1" vertex="1">
          <mxGeometry x="-680" y="-1040" width="40" height="40" as="geometry" />
        </mxCell>
        <mxCell id="jfEfAhBc7xesXZ9xOc8o-10" value="" style="rounded=0;whiteSpace=wrap;html=1;fontSize=14;" parent="1" vertex="1">
          <mxGeometry x="-680" y="-1000" width="40" height="40" as="geometry" />
        </mxCell>
        <mxCell id="jfEfAhBc7xesXZ9xOc8o-11" value="" style="rounded=0;whiteSpace=wrap;html=1;fontSize=14;" parent="1" vertex="1">
          <mxGeometry x="-680" y="-960" width="40" height="40" as="geometry" />
        </mxCell>
        <mxCell id="jfEfAhBc7xesXZ9xOc8o-12" value="" style="rounded=0;whiteSpace=wrap;html=1;fontSize=14;" parent="1" vertex="1">
          <mxGeometry x="-680" y="-920" width="40" height="40" as="geometry" />
        </mxCell>
        <mxCell id="jfEfAhBc7xesXZ9xOc8o-13" value="" style="rounded=0;whiteSpace=wrap;html=1;fontSize=14;" parent="1" vertex="1">
          <mxGeometry x="-680" y="-880" width="40" height="40" as="geometry" />
        </mxCell>
        <mxCell id="jfEfAhBc7xesXZ9xOc8o-14" value="" style="rounded=0;whiteSpace=wrap;html=1;fontSize=14;" parent="1" vertex="1">
          <mxGeometry x="-680" y="-840" width="40" height="40" as="geometry" />
        </mxCell>
        <mxCell id="jfEfAhBc7xesXZ9xOc8o-15" value="" style="rounded=0;whiteSpace=wrap;html=1;fontSize=14;" parent="1" vertex="1">
          <mxGeometry x="-640" y="-1080" width="40" height="40" as="geometry" />
        </mxCell>
        <mxCell id="jfEfAhBc7xesXZ9xOc8o-16" value="" style="rounded=0;whiteSpace=wrap;html=1;fontSize=14;" parent="1" vertex="1">
          <mxGeometry x="-640" y="-1040" width="40" height="40" as="geometry" />
        </mxCell>
        <mxCell id="jfEfAhBc7xesXZ9xOc8o-17" value="" style="rounded=0;whiteSpace=wrap;html=1;fontSize=14;" parent="1" vertex="1">
          <mxGeometry x="-640" y="-1000" width="40" height="40" as="geometry" />
        </mxCell>
        <mxCell id="jfEfAhBc7xesXZ9xOc8o-18" value="" style="rounded=0;whiteSpace=wrap;html=1;fontSize=14;" parent="1" vertex="1">
          <mxGeometry x="-640" y="-960" width="40" height="40" as="geometry" />
        </mxCell>
        <mxCell id="jfEfAhBc7xesXZ9xOc8o-19" value="" style="rounded=0;whiteSpace=wrap;html=1;fontSize=14;" parent="1" vertex="1">
          <mxGeometry x="-640" y="-920" width="40" height="40" as="geometry" />
        </mxCell>
        <mxCell id="jfEfAhBc7xesXZ9xOc8o-20" value="" style="rounded=0;whiteSpace=wrap;html=1;fontSize=14;" parent="1" vertex="1">
          <mxGeometry x="-640" y="-880" width="40" height="40" as="geometry" />
        </mxCell>
        <mxCell id="jfEfAhBc7xesXZ9xOc8o-21" value="" style="rounded=0;whiteSpace=wrap;html=1;fontSize=14;" parent="1" vertex="1">
          <mxGeometry x="-640" y="-840" width="40" height="40" as="geometry" />
        </mxCell>
        <mxCell id="jfEfAhBc7xesXZ9xOc8o-22" value="" style="rounded=0;whiteSpace=wrap;html=1;fontSize=14;" parent="1" vertex="1">
          <mxGeometry x="-600" y="-1080" width="40" height="40" as="geometry" />
        </mxCell>
        <mxCell id="jfEfAhBc7xesXZ9xOc8o-23" value="" style="rounded=0;whiteSpace=wrap;html=1;fontSize=14;" parent="1" vertex="1">
          <mxGeometry x="-600" y="-1040" width="40" height="40" as="geometry" />
        </mxCell>
        <mxCell id="jfEfAhBc7xesXZ9xOc8o-24" value="" style="rounded=0;whiteSpace=wrap;html=1;fontSize=14;" parent="1" vertex="1">
          <mxGeometry x="-600" y="-1000" width="40" height="40" as="geometry" />
        </mxCell>
        <mxCell id="jfEfAhBc7xesXZ9xOc8o-25" value="" style="rounded=0;whiteSpace=wrap;html=1;fontSize=14;" parent="1" vertex="1">
          <mxGeometry x="-600" y="-960" width="40" height="40" as="geometry" />
        </mxCell>
        <mxCell id="jfEfAhBc7xesXZ9xOc8o-26" value="" style="rounded=0;whiteSpace=wrap;html=1;fontSize=14;" parent="1" vertex="1">
          <mxGeometry x="-600" y="-920" width="40" height="40" as="geometry" />
        </mxCell>
        <mxCell id="jfEfAhBc7xesXZ9xOc8o-27" value="" style="rounded=0;whiteSpace=wrap;html=1;fontSize=14;" parent="1" vertex="1">
          <mxGeometry x="-600" y="-880" width="40" height="40" as="geometry" />
        </mxCell>
        <mxCell id="jfEfAhBc7xesXZ9xOc8o-28" value="" style="rounded=0;whiteSpace=wrap;html=1;fontSize=14;" parent="1" vertex="1">
          <mxGeometry x="-600" y="-840" width="40" height="40" as="geometry" />
        </mxCell>
        <mxCell id="jfEfAhBc7xesXZ9xOc8o-29" value="" style="rounded=0;whiteSpace=wrap;html=1;fontSize=14;" parent="1" vertex="1">
          <mxGeometry x="-560" y="-1080" width="40" height="40" as="geometry" />
        </mxCell>
        <mxCell id="jfEfAhBc7xesXZ9xOc8o-30" value="" style="rounded=0;whiteSpace=wrap;html=1;fontSize=14;" parent="1" vertex="1">
          <mxGeometry x="-560" y="-1040" width="40" height="40" as="geometry" />
        </mxCell>
        <mxCell id="jfEfAhBc7xesXZ9xOc8o-31" value="" style="rounded=0;whiteSpace=wrap;html=1;fontSize=14;" parent="1" vertex="1">
          <mxGeometry x="-560" y="-1000" width="40" height="40" as="geometry" />
        </mxCell>
        <mxCell id="jfEfAhBc7xesXZ9xOc8o-32" value="" style="rounded=0;whiteSpace=wrap;html=1;fontSize=14;" parent="1" vertex="1">
          <mxGeometry x="-560" y="-960" width="40" height="40" as="geometry" />
        </mxCell>
        <mxCell id="jfEfAhBc7xesXZ9xOc8o-33" value="" style="rounded=0;whiteSpace=wrap;html=1;fontSize=14;" parent="1" vertex="1">
          <mxGeometry x="-560" y="-920" width="40" height="40" as="geometry" />
        </mxCell>
        <mxCell id="jfEfAhBc7xesXZ9xOc8o-34" value="" style="rounded=0;whiteSpace=wrap;html=1;fontSize=14;" parent="1" vertex="1">
          <mxGeometry x="-560" y="-880" width="40" height="40" as="geometry" />
        </mxCell>
        <mxCell id="jfEfAhBc7xesXZ9xOc8o-35" value="" style="rounded=0;whiteSpace=wrap;html=1;fontSize=14;" parent="1" vertex="1">
          <mxGeometry x="-560" y="-840" width="40" height="40" as="geometry" />
        </mxCell>
        <mxCell id="jfEfAhBc7xesXZ9xOc8o-36" value="" style="rounded=0;whiteSpace=wrap;html=1;fontSize=14;" parent="1" vertex="1">
          <mxGeometry x="-520" y="-1080" width="40" height="40" as="geometry" />
        </mxCell>
        <mxCell id="jfEfAhBc7xesXZ9xOc8o-37" value="" style="rounded=0;whiteSpace=wrap;html=1;fontSize=14;" parent="1" vertex="1">
          <mxGeometry x="-520" y="-1040" width="40" height="40" as="geometry" />
        </mxCell>
        <mxCell id="jfEfAhBc7xesXZ9xOc8o-38" value="" style="rounded=0;whiteSpace=wrap;html=1;fontSize=14;" parent="1" vertex="1">
          <mxGeometry x="-520" y="-1000" width="40" height="40" as="geometry" />
        </mxCell>
        <mxCell id="jfEfAhBc7xesXZ9xOc8o-39" value="" style="rounded=0;whiteSpace=wrap;html=1;fontSize=14;" parent="1" vertex="1">
          <mxGeometry x="-520" y="-960" width="40" height="40" as="geometry" />
        </mxCell>
        <mxCell id="jfEfAhBc7xesXZ9xOc8o-40" value="" style="rounded=0;whiteSpace=wrap;html=1;fontSize=14;" parent="1" vertex="1">
          <mxGeometry x="-520" y="-920" width="40" height="40" as="geometry" />
        </mxCell>
        <mxCell id="jfEfAhBc7xesXZ9xOc8o-41" value="" style="rounded=0;whiteSpace=wrap;html=1;fontSize=14;" parent="1" vertex="1">
          <mxGeometry x="-520" y="-880" width="40" height="40" as="geometry" />
        </mxCell>
        <mxCell id="jfEfAhBc7xesXZ9xOc8o-42" value="" style="rounded=0;whiteSpace=wrap;html=1;fontSize=14;" parent="1" vertex="1">
          <mxGeometry x="-520" y="-840" width="40" height="40" as="geometry" />
        </mxCell>
        <mxCell id="jfEfAhBc7xesXZ9xOc8o-43" value="" style="rounded=0;whiteSpace=wrap;html=1;fontSize=14;" parent="1" vertex="1">
          <mxGeometry x="-480" y="-1080" width="40" height="40" as="geometry" />
        </mxCell>
        <mxCell id="jfEfAhBc7xesXZ9xOc8o-44" value="" style="rounded=0;whiteSpace=wrap;html=1;fontSize=14;" parent="1" vertex="1">
          <mxGeometry x="-480" y="-1040" width="40" height="40" as="geometry" />
        </mxCell>
        <mxCell id="jfEfAhBc7xesXZ9xOc8o-45" value="" style="rounded=0;whiteSpace=wrap;html=1;fontSize=14;" parent="1" vertex="1">
          <mxGeometry x="-480" y="-1000" width="40" height="40" as="geometry" />
        </mxCell>
        <mxCell id="jfEfAhBc7xesXZ9xOc8o-46" value="" style="rounded=0;whiteSpace=wrap;html=1;fontSize=14;" parent="1" vertex="1">
          <mxGeometry x="-480" y="-960" width="40" height="40" as="geometry" />
        </mxCell>
        <mxCell id="jfEfAhBc7xesXZ9xOc8o-47" value="" style="rounded=0;whiteSpace=wrap;html=1;fontSize=14;" parent="1" vertex="1">
          <mxGeometry x="-480" y="-920" width="40" height="40" as="geometry" />
        </mxCell>
        <mxCell id="jfEfAhBc7xesXZ9xOc8o-48" value="" style="rounded=0;whiteSpace=wrap;html=1;fontSize=14;" parent="1" vertex="1">
          <mxGeometry x="-480" y="-880" width="40" height="40" as="geometry" />
        </mxCell>
        <mxCell id="jfEfAhBc7xesXZ9xOc8o-49" value="" style="rounded=0;whiteSpace=wrap;html=1;fontSize=14;" parent="1" vertex="1">
          <mxGeometry x="-480" y="-840" width="40" height="40" as="geometry" />
        </mxCell>
        <mxCell id="jfEfAhBc7xesXZ9xOc8o-54" value="" style="shape=flexArrow;endArrow=classic;html=1;rounded=0;fontSize=14;" parent="1" edge="1">
          <mxGeometry width="50" height="50" relative="1" as="geometry">
            <mxPoint x="-430" y="-940" as="sourcePoint" />
            <mxPoint x="-370" y="-940" as="targetPoint" />
          </mxGeometry>
        </mxCell>
        <mxCell id="jfEfAhBc7xesXZ9xOc8o-55" value="" style="rounded=0;whiteSpace=wrap;html=1;fontSize=14;" parent="1" vertex="1">
          <mxGeometry x="-360" y="-1080" width="40" height="40" as="geometry" />
        </mxCell>
        <mxCell id="jfEfAhBc7xesXZ9xOc8o-56" value="" style="rounded=0;whiteSpace=wrap;html=1;fontSize=14;" parent="1" vertex="1">
          <mxGeometry x="-360" y="-1040" width="40" height="40" as="geometry" />
        </mxCell>
        <mxCell id="jfEfAhBc7xesXZ9xOc8o-57" value="" style="rounded=0;whiteSpace=wrap;html=1;fontSize=14;" parent="1" vertex="1">
          <mxGeometry x="-360" y="-1000" width="40" height="40" as="geometry" />
        </mxCell>
        <mxCell id="jfEfAhBc7xesXZ9xOc8o-58" value="" style="rounded=0;whiteSpace=wrap;html=1;fontSize=14;" parent="1" vertex="1">
          <mxGeometry x="-360" y="-960" width="40" height="40" as="geometry" />
        </mxCell>
        <mxCell id="jfEfAhBc7xesXZ9xOc8o-59" value="" style="rounded=0;whiteSpace=wrap;html=1;fontSize=14;" parent="1" vertex="1">
          <mxGeometry x="-360" y="-920" width="40" height="40" as="geometry" />
        </mxCell>
        <mxCell id="jfEfAhBc7xesXZ9xOc8o-60" value="" style="rounded=0;whiteSpace=wrap;html=1;fontSize=14;" parent="1" vertex="1">
          <mxGeometry x="-360" y="-880" width="40" height="40" as="geometry" />
        </mxCell>
        <mxCell id="jfEfAhBc7xesXZ9xOc8o-61" value="" style="rounded=0;whiteSpace=wrap;html=1;fontSize=14;" parent="1" vertex="1">
          <mxGeometry x="-360" y="-840" width="40" height="40" as="geometry" />
        </mxCell>
        <mxCell id="jfEfAhBc7xesXZ9xOc8o-62" value="" style="rounded=0;whiteSpace=wrap;html=1;fontSize=14;" parent="1" vertex="1">
          <mxGeometry x="-320" y="-1080" width="40" height="40" as="geometry" />
        </mxCell>
        <mxCell id="jfEfAhBc7xesXZ9xOc8o-63" value="" style="rounded=0;whiteSpace=wrap;html=1;fontSize=14;" parent="1" vertex="1">
          <mxGeometry x="-320" y="-1040" width="40" height="40" as="geometry" />
        </mxCell>
        <mxCell id="jfEfAhBc7xesXZ9xOc8o-64" value="" style="rounded=0;whiteSpace=wrap;html=1;fontSize=14;" parent="1" vertex="1">
          <mxGeometry x="-320" y="-1000" width="40" height="40" as="geometry" />
        </mxCell>
        <mxCell id="jfEfAhBc7xesXZ9xOc8o-65" value="" style="rounded=0;whiteSpace=wrap;html=1;fontSize=14;" parent="1" vertex="1">
          <mxGeometry x="-320" y="-960" width="40" height="40" as="geometry" />
        </mxCell>
        <mxCell id="jfEfAhBc7xesXZ9xOc8o-66" value="" style="rounded=0;whiteSpace=wrap;html=1;fontSize=14;" parent="1" vertex="1">
          <mxGeometry x="-320" y="-920" width="40" height="40" as="geometry" />
        </mxCell>
        <mxCell id="jfEfAhBc7xesXZ9xOc8o-67" value="" style="rounded=0;whiteSpace=wrap;html=1;fontSize=14;" parent="1" vertex="1">
          <mxGeometry x="-320" y="-880" width="40" height="40" as="geometry" />
        </mxCell>
        <mxCell id="jfEfAhBc7xesXZ9xOc8o-68" value="" style="rounded=0;whiteSpace=wrap;html=1;fontSize=14;" parent="1" vertex="1">
          <mxGeometry x="-320" y="-840" width="40" height="40" as="geometry" />
        </mxCell>
        <mxCell id="jfEfAhBc7xesXZ9xOc8o-69" value="" style="rounded=0;whiteSpace=wrap;html=1;fontSize=14;" parent="1" vertex="1">
          <mxGeometry x="-280" y="-1080" width="40" height="40" as="geometry" />
        </mxCell>
        <mxCell id="jfEfAhBc7xesXZ9xOc8o-70" value="" style="rounded=0;whiteSpace=wrap;html=1;fontSize=14;" parent="1" vertex="1">
          <mxGeometry x="-280" y="-1040" width="40" height="40" as="geometry" />
        </mxCell>
        <mxCell id="jfEfAhBc7xesXZ9xOc8o-71" value="" style="rounded=0;whiteSpace=wrap;html=1;fontSize=14;" parent="1" vertex="1">
          <mxGeometry x="-280" y="-1000" width="40" height="40" as="geometry" />
        </mxCell>
        <mxCell id="jfEfAhBc7xesXZ9xOc8o-72" value="" style="rounded=0;whiteSpace=wrap;html=1;fontSize=14;" parent="1" vertex="1">
          <mxGeometry x="-280" y="-960" width="40" height="40" as="geometry" />
        </mxCell>
        <mxCell id="jfEfAhBc7xesXZ9xOc8o-73" value="" style="rounded=0;whiteSpace=wrap;html=1;fontSize=14;" parent="1" vertex="1">
          <mxGeometry x="-280" y="-920" width="40" height="40" as="geometry" />
        </mxCell>
        <mxCell id="jfEfAhBc7xesXZ9xOc8o-74" value="" style="rounded=0;whiteSpace=wrap;html=1;fontSize=14;" parent="1" vertex="1">
          <mxGeometry x="-280" y="-880" width="40" height="40" as="geometry" />
        </mxCell>
        <mxCell id="jfEfAhBc7xesXZ9xOc8o-75" value="" style="rounded=0;whiteSpace=wrap;html=1;fontSize=14;" parent="1" vertex="1">
          <mxGeometry x="-280" y="-840" width="40" height="40" as="geometry" />
        </mxCell>
        <mxCell id="jfEfAhBc7xesXZ9xOc8o-76" value="" style="rounded=0;whiteSpace=wrap;html=1;fontSize=14;" parent="1" vertex="1">
          <mxGeometry x="-240" y="-1080" width="40" height="40" as="geometry" />
        </mxCell>
        <mxCell id="jfEfAhBc7xesXZ9xOc8o-77" value="" style="rounded=0;whiteSpace=wrap;html=1;fontSize=14;" parent="1" vertex="1">
          <mxGeometry x="-240" y="-1040" width="40" height="40" as="geometry" />
        </mxCell>
        <mxCell id="jfEfAhBc7xesXZ9xOc8o-78" value="" style="rounded=0;whiteSpace=wrap;html=1;fontSize=14;" parent="1" vertex="1">
          <mxGeometry x="-240" y="-1000" width="40" height="40" as="geometry" />
        </mxCell>
        <mxCell id="jfEfAhBc7xesXZ9xOc8o-79" value="" style="rounded=0;whiteSpace=wrap;html=1;fontSize=14;" parent="1" vertex="1">
          <mxGeometry x="-240" y="-960" width="40" height="40" as="geometry" />
        </mxCell>
        <mxCell id="jfEfAhBc7xesXZ9xOc8o-80" value="" style="rounded=0;whiteSpace=wrap;html=1;fontSize=14;" parent="1" vertex="1">
          <mxGeometry x="-240" y="-920" width="40" height="40" as="geometry" />
        </mxCell>
        <mxCell id="jfEfAhBc7xesXZ9xOc8o-81" value="" style="rounded=0;whiteSpace=wrap;html=1;fontSize=14;" parent="1" vertex="1">
          <mxGeometry x="-240" y="-880" width="40" height="40" as="geometry" />
        </mxCell>
        <mxCell id="jfEfAhBc7xesXZ9xOc8o-82" value="" style="rounded=0;whiteSpace=wrap;html=1;fontSize=14;" parent="1" vertex="1">
          <mxGeometry x="-240" y="-840" width="40" height="40" as="geometry" />
        </mxCell>
        <mxCell id="jfEfAhBc7xesXZ9xOc8o-83" value="" style="rounded=0;whiteSpace=wrap;html=1;fontSize=14;" parent="1" vertex="1">
          <mxGeometry x="-200" y="-1080" width="40" height="40" as="geometry" />
        </mxCell>
        <mxCell id="jfEfAhBc7xesXZ9xOc8o-84" value="" style="rounded=0;whiteSpace=wrap;html=1;fontSize=14;" parent="1" vertex="1">
          <mxGeometry x="-200" y="-1040" width="40" height="40" as="geometry" />
        </mxCell>
        <mxCell id="jfEfAhBc7xesXZ9xOc8o-85" value="" style="rounded=0;whiteSpace=wrap;html=1;fontSize=14;" parent="1" vertex="1">
          <mxGeometry x="-200" y="-1000" width="40" height="40" as="geometry" />
        </mxCell>
        <mxCell id="jfEfAhBc7xesXZ9xOc8o-86" value="" style="rounded=0;whiteSpace=wrap;html=1;fontSize=14;" parent="1" vertex="1">
          <mxGeometry x="-200" y="-960" width="40" height="40" as="geometry" />
        </mxCell>
        <mxCell id="jfEfAhBc7xesXZ9xOc8o-87" value="" style="rounded=0;whiteSpace=wrap;html=1;fontSize=14;" parent="1" vertex="1">
          <mxGeometry x="-200" y="-920" width="40" height="40" as="geometry" />
        </mxCell>
        <mxCell id="jfEfAhBc7xesXZ9xOc8o-88" value="" style="rounded=0;whiteSpace=wrap;html=1;fontSize=14;" parent="1" vertex="1">
          <mxGeometry x="-200" y="-880" width="40" height="40" as="geometry" />
        </mxCell>
        <mxCell id="jfEfAhBc7xesXZ9xOc8o-89" value="" style="rounded=0;whiteSpace=wrap;html=1;fontSize=14;" parent="1" vertex="1">
          <mxGeometry x="-200" y="-840" width="40" height="40" as="geometry" />
        </mxCell>
        <mxCell id="jfEfAhBc7xesXZ9xOc8o-90" value="" style="rounded=0;whiteSpace=wrap;html=1;fontSize=14;" parent="1" vertex="1">
          <mxGeometry x="-160" y="-1080" width="40" height="40" as="geometry" />
        </mxCell>
        <mxCell id="jfEfAhBc7xesXZ9xOc8o-91" value="" style="rounded=0;whiteSpace=wrap;html=1;fontSize=14;" parent="1" vertex="1">
          <mxGeometry x="-160" y="-1040" width="40" height="40" as="geometry" />
        </mxCell>
        <mxCell id="jfEfAhBc7xesXZ9xOc8o-92" value="" style="rounded=0;whiteSpace=wrap;html=1;fontSize=14;" parent="1" vertex="1">
          <mxGeometry x="-160" y="-1000" width="40" height="40" as="geometry" />
        </mxCell>
        <mxCell id="jfEfAhBc7xesXZ9xOc8o-93" value="" style="rounded=0;whiteSpace=wrap;html=1;fontSize=14;" parent="1" vertex="1">
          <mxGeometry x="-160" y="-960" width="40" height="40" as="geometry" />
        </mxCell>
        <mxCell id="jfEfAhBc7xesXZ9xOc8o-94" value="" style="rounded=0;whiteSpace=wrap;html=1;fontSize=14;" parent="1" vertex="1">
          <mxGeometry x="-160" y="-920" width="40" height="40" as="geometry" />
        </mxCell>
        <mxCell id="jfEfAhBc7xesXZ9xOc8o-95" value="" style="rounded=0;whiteSpace=wrap;html=1;fontSize=14;" parent="1" vertex="1">
          <mxGeometry x="-160" y="-880" width="40" height="40" as="geometry" />
        </mxCell>
        <mxCell id="jfEfAhBc7xesXZ9xOc8o-96" value="" style="rounded=0;whiteSpace=wrap;html=1;fontSize=14;" parent="1" vertex="1">
          <mxGeometry x="-160" y="-840" width="40" height="40" as="geometry" />
        </mxCell>
        <mxCell id="jfEfAhBc7xesXZ9xOc8o-97" value="" style="rounded=0;whiteSpace=wrap;html=1;fontSize=14;" parent="1" vertex="1">
          <mxGeometry x="-120" y="-1080" width="40" height="40" as="geometry" />
        </mxCell>
        <mxCell id="jfEfAhBc7xesXZ9xOc8o-98" value="" style="rounded=0;whiteSpace=wrap;html=1;fontSize=14;" parent="1" vertex="1">
          <mxGeometry x="-120" y="-1040" width="40" height="40" as="geometry" />
        </mxCell>
        <mxCell id="jfEfAhBc7xesXZ9xOc8o-99" value="" style="rounded=0;whiteSpace=wrap;html=1;fontSize=14;" parent="1" vertex="1">
          <mxGeometry x="-120" y="-1000" width="40" height="40" as="geometry" />
        </mxCell>
        <mxCell id="jfEfAhBc7xesXZ9xOc8o-100" value="" style="rounded=0;whiteSpace=wrap;html=1;fontSize=14;" parent="1" vertex="1">
          <mxGeometry x="-120" y="-960" width="40" height="40" as="geometry" />
        </mxCell>
        <mxCell id="jfEfAhBc7xesXZ9xOc8o-101" value="" style="rounded=0;whiteSpace=wrap;html=1;fontSize=14;" parent="1" vertex="1">
          <mxGeometry x="-120" y="-920" width="40" height="40" as="geometry" />
        </mxCell>
        <mxCell id="jfEfAhBc7xesXZ9xOc8o-102" value="" style="rounded=0;whiteSpace=wrap;html=1;fontSize=14;" parent="1" vertex="1">
          <mxGeometry x="-120" y="-880" width="40" height="40" as="geometry" />
        </mxCell>
        <mxCell id="jfEfAhBc7xesXZ9xOc8o-103" value="" style="rounded=0;whiteSpace=wrap;html=1;fontSize=14;" parent="1" vertex="1">
          <mxGeometry x="-120" y="-840" width="40" height="40" as="geometry" />
        </mxCell>
        <mxCell id="jfEfAhBc7xesXZ9xOc8o-104" value="" style="endArrow=classic;html=1;rounded=0;fillColor=#f8cecc;strokeColor=#b85450;fontSize=14;" parent="1" edge="1">
          <mxGeometry width="50" height="50" relative="1" as="geometry">
            <mxPoint x="-370" y="-1060" as="sourcePoint" />
            <mxPoint x="-60" y="-1060" as="targetPoint" />
          </mxGeometry>
        </mxCell>
        <mxCell id="jfEfAhBc7xesXZ9xOc8o-105" value="" style="endArrow=classic;html=1;rounded=0;fillColor=#f8cecc;strokeColor=#b85450;fontSize=14;" parent="1" edge="1">
          <mxGeometry width="50" height="50" relative="1" as="geometry">
            <mxPoint x="-370" y="-1020.4" as="sourcePoint" />
            <mxPoint x="-60" y="-1020.4" as="targetPoint" />
          </mxGeometry>
        </mxCell>
        <mxCell id="jfEfAhBc7xesXZ9xOc8o-106" value="" style="endArrow=classic;html=1;rounded=0;fillColor=#f8cecc;strokeColor=#b85450;fontSize=14;" parent="1" edge="1">
          <mxGeometry width="50" height="50" relative="1" as="geometry">
            <mxPoint x="-370" y="-980.4" as="sourcePoint" />
            <mxPoint x="-60" y="-980.4" as="targetPoint" />
          </mxGeometry>
        </mxCell>
        <mxCell id="jfEfAhBc7xesXZ9xOc8o-107" value="" style="rounded=0;whiteSpace=wrap;html=1;fontSize=14;" parent="1" vertex="1">
          <mxGeometry x="10" y="-1080" width="40" height="40" as="geometry" />
        </mxCell>
        <mxCell id="jfEfAhBc7xesXZ9xOc8o-108" value="" style="rounded=0;whiteSpace=wrap;html=1;fontSize=14;" parent="1" vertex="1">
          <mxGeometry x="10" y="-1040" width="40" height="40" as="geometry" />
        </mxCell>
        <mxCell id="jfEfAhBc7xesXZ9xOc8o-109" value="" style="rounded=0;whiteSpace=wrap;html=1;fontSize=14;" parent="1" vertex="1">
          <mxGeometry x="10" y="-1000" width="40" height="40" as="geometry" />
        </mxCell>
        <mxCell id="jfEfAhBc7xesXZ9xOc8o-110" value="" style="rounded=0;whiteSpace=wrap;html=1;fontSize=14;" parent="1" vertex="1">
          <mxGeometry x="10" y="-960" width="40" height="40" as="geometry" />
        </mxCell>
        <mxCell id="jfEfAhBc7xesXZ9xOc8o-111" value="" style="rounded=0;whiteSpace=wrap;html=1;fontSize=14;" parent="1" vertex="1">
          <mxGeometry x="10" y="-920" width="40" height="40" as="geometry" />
        </mxCell>
        <mxCell id="jfEfAhBc7xesXZ9xOc8o-112" value="" style="rounded=0;whiteSpace=wrap;html=1;fontSize=14;" parent="1" vertex="1">
          <mxGeometry x="10" y="-880" width="40" height="40" as="geometry" />
        </mxCell>
        <mxCell id="jfEfAhBc7xesXZ9xOc8o-113" value="" style="rounded=0;whiteSpace=wrap;html=1;fontSize=14;" parent="1" vertex="1">
          <mxGeometry x="10" y="-840" width="40" height="40" as="geometry" />
        </mxCell>
        <mxCell id="jfEfAhBc7xesXZ9xOc8o-114" value="" style="rounded=0;whiteSpace=wrap;html=1;fontSize=14;" parent="1" vertex="1">
          <mxGeometry x="50" y="-1080" width="40" height="40" as="geometry" />
        </mxCell>
        <mxCell id="jfEfAhBc7xesXZ9xOc8o-115" value="" style="rounded=0;whiteSpace=wrap;html=1;fontSize=14;" parent="1" vertex="1">
          <mxGeometry x="50" y="-1040" width="40" height="40" as="geometry" />
        </mxCell>
        <mxCell id="jfEfAhBc7xesXZ9xOc8o-116" value="" style="rounded=0;whiteSpace=wrap;html=1;fontSize=14;" parent="1" vertex="1">
          <mxGeometry x="50" y="-1000" width="40" height="40" as="geometry" />
        </mxCell>
        <mxCell id="jfEfAhBc7xesXZ9xOc8o-117" value="" style="rounded=0;whiteSpace=wrap;html=1;fontSize=14;" parent="1" vertex="1">
          <mxGeometry x="50" y="-960" width="40" height="40" as="geometry" />
        </mxCell>
        <mxCell id="jfEfAhBc7xesXZ9xOc8o-118" value="" style="rounded=0;whiteSpace=wrap;html=1;fontSize=14;" parent="1" vertex="1">
          <mxGeometry x="50" y="-920" width="40" height="40" as="geometry" />
        </mxCell>
        <mxCell id="jfEfAhBc7xesXZ9xOc8o-119" value="" style="rounded=0;whiteSpace=wrap;html=1;fontSize=14;" parent="1" vertex="1">
          <mxGeometry x="50" y="-880" width="40" height="40" as="geometry" />
        </mxCell>
        <mxCell id="jfEfAhBc7xesXZ9xOc8o-120" value="" style="rounded=0;whiteSpace=wrap;html=1;fontSize=14;" parent="1" vertex="1">
          <mxGeometry x="50" y="-840" width="40" height="40" as="geometry" />
        </mxCell>
        <mxCell id="jfEfAhBc7xesXZ9xOc8o-121" value="" style="rounded=0;whiteSpace=wrap;html=1;fontSize=14;" parent="1" vertex="1">
          <mxGeometry x="90" y="-1080" width="40" height="40" as="geometry" />
        </mxCell>
        <mxCell id="jfEfAhBc7xesXZ9xOc8o-122" value="" style="rounded=0;whiteSpace=wrap;html=1;fontSize=14;" parent="1" vertex="1">
          <mxGeometry x="90" y="-1040" width="40" height="40" as="geometry" />
        </mxCell>
        <mxCell id="jfEfAhBc7xesXZ9xOc8o-123" value="" style="rounded=0;whiteSpace=wrap;html=1;fontSize=14;" parent="1" vertex="1">
          <mxGeometry x="90" y="-1000" width="40" height="40" as="geometry" />
        </mxCell>
        <mxCell id="jfEfAhBc7xesXZ9xOc8o-124" value="" style="rounded=0;whiteSpace=wrap;html=1;fontSize=14;" parent="1" vertex="1">
          <mxGeometry x="90" y="-960" width="40" height="40" as="geometry" />
        </mxCell>
        <mxCell id="jfEfAhBc7xesXZ9xOc8o-125" value="" style="rounded=0;whiteSpace=wrap;html=1;fontSize=14;" parent="1" vertex="1">
          <mxGeometry x="90" y="-920" width="40" height="40" as="geometry" />
        </mxCell>
        <mxCell id="jfEfAhBc7xesXZ9xOc8o-126" value="" style="rounded=0;whiteSpace=wrap;html=1;fontSize=14;" parent="1" vertex="1">
          <mxGeometry x="90" y="-880" width="40" height="40" as="geometry" />
        </mxCell>
        <mxCell id="jfEfAhBc7xesXZ9xOc8o-127" value="" style="rounded=0;whiteSpace=wrap;html=1;fontSize=14;" parent="1" vertex="1">
          <mxGeometry x="90" y="-840" width="40" height="40" as="geometry" />
        </mxCell>
        <mxCell id="jfEfAhBc7xesXZ9xOc8o-128" value="" style="rounded=0;whiteSpace=wrap;html=1;fontSize=14;" parent="1" vertex="1">
          <mxGeometry x="130" y="-1080" width="40" height="40" as="geometry" />
        </mxCell>
        <mxCell id="jfEfAhBc7xesXZ9xOc8o-129" value="" style="rounded=0;whiteSpace=wrap;html=1;fontSize=14;" parent="1" vertex="1">
          <mxGeometry x="130" y="-1040" width="40" height="40" as="geometry" />
        </mxCell>
        <mxCell id="jfEfAhBc7xesXZ9xOc8o-130" value="" style="rounded=0;whiteSpace=wrap;html=1;fontSize=14;" parent="1" vertex="1">
          <mxGeometry x="130" y="-1000" width="40" height="40" as="geometry" />
        </mxCell>
        <mxCell id="jfEfAhBc7xesXZ9xOc8o-131" value="" style="rounded=0;whiteSpace=wrap;html=1;fontSize=14;" parent="1" vertex="1">
          <mxGeometry x="130" y="-960" width="40" height="40" as="geometry" />
        </mxCell>
        <mxCell id="jfEfAhBc7xesXZ9xOc8o-132" value="" style="rounded=0;whiteSpace=wrap;html=1;fontSize=14;" parent="1" vertex="1">
          <mxGeometry x="130" y="-920" width="40" height="40" as="geometry" />
        </mxCell>
        <mxCell id="jfEfAhBc7xesXZ9xOc8o-133" value="" style="rounded=0;whiteSpace=wrap;html=1;fontSize=14;" parent="1" vertex="1">
          <mxGeometry x="130" y="-880" width="40" height="40" as="geometry" />
        </mxCell>
        <mxCell id="jfEfAhBc7xesXZ9xOc8o-134" value="" style="rounded=0;whiteSpace=wrap;html=1;fontSize=14;" parent="1" vertex="1">
          <mxGeometry x="130" y="-840" width="40" height="40" as="geometry" />
        </mxCell>
        <mxCell id="jfEfAhBc7xesXZ9xOc8o-135" value="" style="rounded=0;whiteSpace=wrap;html=1;fontSize=14;" parent="1" vertex="1">
          <mxGeometry x="170" y="-1080" width="40" height="40" as="geometry" />
        </mxCell>
        <mxCell id="jfEfAhBc7xesXZ9xOc8o-136" value="" style="rounded=0;whiteSpace=wrap;html=1;fontSize=14;" parent="1" vertex="1">
          <mxGeometry x="170" y="-1040" width="40" height="40" as="geometry" />
        </mxCell>
        <mxCell id="jfEfAhBc7xesXZ9xOc8o-137" value="" style="rounded=0;whiteSpace=wrap;html=1;fontSize=14;" parent="1" vertex="1">
          <mxGeometry x="170" y="-1000" width="40" height="40" as="geometry" />
        </mxCell>
        <mxCell id="jfEfAhBc7xesXZ9xOc8o-138" value="" style="rounded=0;whiteSpace=wrap;html=1;fontSize=14;" parent="1" vertex="1">
          <mxGeometry x="170" y="-960" width="40" height="40" as="geometry" />
        </mxCell>
        <mxCell id="jfEfAhBc7xesXZ9xOc8o-139" value="" style="rounded=0;whiteSpace=wrap;html=1;fontSize=14;" parent="1" vertex="1">
          <mxGeometry x="170" y="-920" width="40" height="40" as="geometry" />
        </mxCell>
        <mxCell id="jfEfAhBc7xesXZ9xOc8o-140" value="" style="rounded=0;whiteSpace=wrap;html=1;fontSize=14;" parent="1" vertex="1">
          <mxGeometry x="170" y="-880" width="40" height="40" as="geometry" />
        </mxCell>
        <mxCell id="jfEfAhBc7xesXZ9xOc8o-141" value="" style="rounded=0;whiteSpace=wrap;html=1;fontSize=14;" parent="1" vertex="1">
          <mxGeometry x="170" y="-840" width="40" height="40" as="geometry" />
        </mxCell>
        <mxCell id="jfEfAhBc7xesXZ9xOc8o-142" value="" style="rounded=0;whiteSpace=wrap;html=1;fontSize=14;" parent="1" vertex="1">
          <mxGeometry x="210" y="-1080" width="40" height="40" as="geometry" />
        </mxCell>
        <mxCell id="jfEfAhBc7xesXZ9xOc8o-143" value="" style="rounded=0;whiteSpace=wrap;html=1;fontSize=14;" parent="1" vertex="1">
          <mxGeometry x="210" y="-1040" width="40" height="40" as="geometry" />
        </mxCell>
        <mxCell id="jfEfAhBc7xesXZ9xOc8o-144" value="" style="rounded=0;whiteSpace=wrap;html=1;fontSize=14;" parent="1" vertex="1">
          <mxGeometry x="210" y="-1000" width="40" height="40" as="geometry" />
        </mxCell>
        <mxCell id="jfEfAhBc7xesXZ9xOc8o-145" value="" style="rounded=0;whiteSpace=wrap;html=1;fontSize=14;" parent="1" vertex="1">
          <mxGeometry x="210" y="-960" width="40" height="40" as="geometry" />
        </mxCell>
        <mxCell id="jfEfAhBc7xesXZ9xOc8o-146" value="" style="rounded=0;whiteSpace=wrap;html=1;fontSize=14;" parent="1" vertex="1">
          <mxGeometry x="210" y="-920" width="40" height="40" as="geometry" />
        </mxCell>
        <mxCell id="jfEfAhBc7xesXZ9xOc8o-147" value="" style="rounded=0;whiteSpace=wrap;html=1;fontSize=14;" parent="1" vertex="1">
          <mxGeometry x="210" y="-880" width="40" height="40" as="geometry" />
        </mxCell>
        <mxCell id="jfEfAhBc7xesXZ9xOc8o-148" value="" style="rounded=0;whiteSpace=wrap;html=1;fontSize=14;" parent="1" vertex="1">
          <mxGeometry x="210" y="-840" width="40" height="40" as="geometry" />
        </mxCell>
        <mxCell id="jfEfAhBc7xesXZ9xOc8o-149" value="" style="rounded=0;whiteSpace=wrap;html=1;fontSize=14;" parent="1" vertex="1">
          <mxGeometry x="250" y="-1080" width="40" height="40" as="geometry" />
        </mxCell>
        <mxCell id="jfEfAhBc7xesXZ9xOc8o-150" value="" style="rounded=0;whiteSpace=wrap;html=1;fontSize=14;" parent="1" vertex="1">
          <mxGeometry x="250" y="-1040" width="40" height="40" as="geometry" />
        </mxCell>
        <mxCell id="jfEfAhBc7xesXZ9xOc8o-151" value="" style="rounded=0;whiteSpace=wrap;html=1;fontSize=14;" parent="1" vertex="1">
          <mxGeometry x="250" y="-1000" width="40" height="40" as="geometry" />
        </mxCell>
        <mxCell id="jfEfAhBc7xesXZ9xOc8o-152" value="" style="rounded=0;whiteSpace=wrap;html=1;fontSize=14;" parent="1" vertex="1">
          <mxGeometry x="250" y="-960" width="40" height="40" as="geometry" />
        </mxCell>
        <mxCell id="jfEfAhBc7xesXZ9xOc8o-153" value="" style="rounded=0;whiteSpace=wrap;html=1;fontSize=14;" parent="1" vertex="1">
          <mxGeometry x="250" y="-920" width="40" height="40" as="geometry" />
        </mxCell>
        <mxCell id="jfEfAhBc7xesXZ9xOc8o-154" value="" style="rounded=0;whiteSpace=wrap;html=1;fontSize=14;" parent="1" vertex="1">
          <mxGeometry x="250" y="-880" width="40" height="40" as="geometry" />
        </mxCell>
        <mxCell id="jfEfAhBc7xesXZ9xOc8o-155" value="" style="rounded=0;whiteSpace=wrap;html=1;fontSize=14;" parent="1" vertex="1">
          <mxGeometry x="250" y="-840" width="40" height="40" as="geometry" />
        </mxCell>
        <mxCell id="jfEfAhBc7xesXZ9xOc8o-156" value="" style="shape=flexArrow;endArrow=classic;html=1;rounded=0;fontSize=14;" parent="1" edge="1">
          <mxGeometry width="50" height="50" relative="1" as="geometry">
            <mxPoint x="-70" y="-940.48" as="sourcePoint" />
            <mxPoint x="-10" y="-940.48" as="targetPoint" />
          </mxGeometry>
        </mxCell>
        <mxCell id="jfEfAhBc7xesXZ9xOc8o-157" value="" style="endArrow=classic;html=1;rounded=0;fillColor=#f8cecc;strokeColor=#b85450;fontSize=14;" parent="1" edge="1">
          <mxGeometry width="50" height="50" relative="1" as="geometry">
            <mxPoint x="30" y="-1100" as="sourcePoint" />
            <mxPoint x="30" y="-780" as="targetPoint" />
          </mxGeometry>
        </mxCell>
        <mxCell id="jfEfAhBc7xesXZ9xOc8o-158" value="" style="endArrow=classic;html=1;rounded=0;fillColor=#f8cecc;strokeColor=#b85450;fontSize=14;" parent="1" edge="1">
          <mxGeometry width="50" height="50" relative="1" as="geometry">
            <mxPoint x="75.02000000000001" y="-1100" as="sourcePoint" />
            <mxPoint x="75.02000000000001" y="-780" as="targetPoint" />
          </mxGeometry>
        </mxCell>
        <mxCell id="jfEfAhBc7xesXZ9xOc8o-159" value="" style="endArrow=classic;html=1;rounded=0;fillColor=#f8cecc;strokeColor=#b85450;fontSize=14;" parent="1" edge="1">
          <mxGeometry width="50" height="50" relative="1" as="geometry">
            <mxPoint x="109.52000000000001" y="-1100" as="sourcePoint" />
            <mxPoint x="109.52000000000001" y="-780" as="targetPoint" />
          </mxGeometry>
        </mxCell>
        <mxCell id="jfEfAhBc7xesXZ9xOc8o-161" value="sắp xếp theo hàng" style="text;html=1;align=center;verticalAlign=middle;whiteSpace=wrap;rounded=0;fontSize=14;" parent="1" vertex="1">
          <mxGeometry x="-440" y="-995" width="80" height="30" as="geometry" />
        </mxCell>
        <mxCell id="jfEfAhBc7xesXZ9xOc8o-162" value="sắp xếp theo cột" style="text;html=1;align=center;verticalAlign=middle;whiteSpace=wrap;rounded=0;fontSize=14;" parent="1" vertex="1">
          <mxGeometry x="-60" y="-995" width="60" height="30" as="geometry" />
        </mxCell>
        <mxCell id="jfEfAhBc7xesXZ9xOc8o-164" value="" style="shape=flexArrow;endArrow=classic;html=1;rounded=0;fontSize=14;" parent="1" edge="1">
          <mxGeometry width="50" height="50" relative="1" as="geometry">
            <mxPoint x="160" y="-769.9977777777774" as="sourcePoint" />
            <mxPoint x="160" y="-721.74" as="targetPoint" />
          </mxGeometry>
        </mxCell>
        <mxCell id="jfEfAhBc7xesXZ9xOc8o-165" value="" style="rounded=0;whiteSpace=wrap;html=1;fontSize=14;" parent="1" vertex="1">
          <mxGeometry x="10" y="-710" width="40" height="40" as="geometry" />
        </mxCell>
        <mxCell id="jfEfAhBc7xesXZ9xOc8o-166" value="" style="rounded=0;whiteSpace=wrap;html=1;fontSize=14;" parent="1" vertex="1">
          <mxGeometry x="10" y="-670" width="40" height="40" as="geometry" />
        </mxCell>
        <mxCell id="jfEfAhBc7xesXZ9xOc8o-167" value="" style="rounded=0;whiteSpace=wrap;html=1;fontSize=14;" parent="1" vertex="1">
          <mxGeometry x="10" y="-630" width="40" height="40" as="geometry" />
        </mxCell>
        <mxCell id="jfEfAhBc7xesXZ9xOc8o-168" value="" style="rounded=0;whiteSpace=wrap;html=1;fontSize=14;" parent="1" vertex="1">
          <mxGeometry x="10" y="-590" width="40" height="40" as="geometry" />
        </mxCell>
        <mxCell id="jfEfAhBc7xesXZ9xOc8o-169" value="" style="rounded=0;whiteSpace=wrap;html=1;fillColor=#d5e8d4;strokeColor=#82b366;fontSize=14;" parent="1" vertex="1">
          <mxGeometry x="10" y="-550" width="40" height="40" as="geometry" />
        </mxCell>
        <mxCell id="jfEfAhBc7xesXZ9xOc8o-170" value="" style="rounded=0;whiteSpace=wrap;html=1;fillColor=#d5e8d4;strokeColor=#82b366;fontSize=14;" parent="1" vertex="1">
          <mxGeometry x="10" y="-510" width="40" height="40" as="geometry" />
        </mxCell>
        <mxCell id="jfEfAhBc7xesXZ9xOc8o-171" value="" style="rounded=0;whiteSpace=wrap;html=1;fillColor=#d5e8d4;strokeColor=#82b366;fontSize=14;" parent="1" vertex="1">
          <mxGeometry x="10" y="-470" width="40" height="40" as="geometry" />
        </mxCell>
        <mxCell id="jfEfAhBc7xesXZ9xOc8o-172" value="" style="rounded=0;whiteSpace=wrap;html=1;fontSize=14;" parent="1" vertex="1">
          <mxGeometry x="50" y="-710" width="40" height="40" as="geometry" />
        </mxCell>
        <mxCell id="jfEfAhBc7xesXZ9xOc8o-173" value="" style="rounded=0;whiteSpace=wrap;html=1;fontSize=14;" parent="1" vertex="1">
          <mxGeometry x="50" y="-670" width="40" height="40" as="geometry" />
        </mxCell>
        <mxCell id="jfEfAhBc7xesXZ9xOc8o-174" value="" style="rounded=0;whiteSpace=wrap;html=1;fontSize=14;" parent="1" vertex="1">
          <mxGeometry x="50" y="-630" width="40" height="40" as="geometry" />
        </mxCell>
        <mxCell id="jfEfAhBc7xesXZ9xOc8o-175" value="" style="rounded=0;whiteSpace=wrap;html=1;fillColor=#d5e8d4;strokeColor=#82b366;fontSize=14;" parent="1" vertex="1">
          <mxGeometry x="50" y="-590" width="40" height="40" as="geometry" />
        </mxCell>
        <mxCell id="jfEfAhBc7xesXZ9xOc8o-176" value="" style="rounded=0;whiteSpace=wrap;html=1;fillColor=#d5e8d4;strokeColor=#82b366;fontSize=14;" parent="1" vertex="1">
          <mxGeometry x="50" y="-550" width="40" height="40" as="geometry" />
        </mxCell>
        <mxCell id="jfEfAhBc7xesXZ9xOc8o-177" value="" style="rounded=0;whiteSpace=wrap;html=1;fillColor=#d5e8d4;strokeColor=#82b366;fontSize=14;" parent="1" vertex="1">
          <mxGeometry x="50" y="-510" width="40" height="40" as="geometry" />
        </mxCell>
        <mxCell id="jfEfAhBc7xesXZ9xOc8o-178" value="" style="rounded=0;whiteSpace=wrap;html=1;fillColor=#d5e8d4;strokeColor=#82b366;fontSize=14;" parent="1" vertex="1">
          <mxGeometry x="50" y="-470" width="40" height="40" as="geometry" />
        </mxCell>
        <mxCell id="jfEfAhBc7xesXZ9xOc8o-179" value="" style="rounded=0;whiteSpace=wrap;html=1;fontSize=14;" parent="1" vertex="1">
          <mxGeometry x="90" y="-710" width="40" height="40" as="geometry" />
        </mxCell>
        <mxCell id="jfEfAhBc7xesXZ9xOc8o-180" value="" style="rounded=0;whiteSpace=wrap;html=1;fontSize=14;" parent="1" vertex="1">
          <mxGeometry x="90" y="-670" width="40" height="40" as="geometry" />
        </mxCell>
        <mxCell id="jfEfAhBc7xesXZ9xOc8o-181" value="" style="rounded=0;whiteSpace=wrap;html=1;fillColor=#fff2cc;strokeColor=#d6b656;fontSize=14;" parent="1" vertex="1">
          <mxGeometry x="90" y="-630" width="40" height="40" as="geometry" />
        </mxCell>
        <mxCell id="jfEfAhBc7xesXZ9xOc8o-182" value="" style="rounded=0;whiteSpace=wrap;html=1;fillColor=#d5e8d4;strokeColor=#82b366;fontSize=14;" parent="1" vertex="1">
          <mxGeometry x="90" y="-590" width="40" height="40" as="geometry" />
        </mxCell>
        <mxCell id="jfEfAhBc7xesXZ9xOc8o-183" value="" style="rounded=0;whiteSpace=wrap;html=1;fillColor=#d5e8d4;strokeColor=#82b366;fontSize=14;" parent="1" vertex="1">
          <mxGeometry x="90" y="-550" width="40" height="40" as="geometry" />
        </mxCell>
        <mxCell id="jfEfAhBc7xesXZ9xOc8o-184" value="" style="rounded=0;whiteSpace=wrap;html=1;fillColor=#d5e8d4;strokeColor=#82b366;fontSize=14;" parent="1" vertex="1">
          <mxGeometry x="90" y="-510" width="40" height="40" as="geometry" />
        </mxCell>
        <mxCell id="jfEfAhBc7xesXZ9xOc8o-185" value="" style="rounded=0;whiteSpace=wrap;html=1;fillColor=#fff2cc;strokeColor=#d6b656;fontSize=14;" parent="1" vertex="1">
          <mxGeometry x="90" y="-470" width="40" height="40" as="geometry" />
        </mxCell>
        <mxCell id="jfEfAhBc7xesXZ9xOc8o-186" value="" style="rounded=0;whiteSpace=wrap;html=1;fontSize=14;" parent="1" vertex="1">
          <mxGeometry x="130" y="-710" width="40" height="40" as="geometry" />
        </mxCell>
        <mxCell id="jfEfAhBc7xesXZ9xOc8o-187" value="" style="rounded=0;whiteSpace=wrap;html=1;fillColor=#fff2cc;strokeColor=#d6b656;fontSize=14;" parent="1" vertex="1">
          <mxGeometry x="130" y="-670" width="40" height="40" as="geometry" />
        </mxCell>
        <mxCell id="jfEfAhBc7xesXZ9xOc8o-188" value="" style="rounded=0;whiteSpace=wrap;html=1;fillColor=#d5e8d4;strokeColor=#82b366;fontSize=14;" parent="1" vertex="1">
          <mxGeometry x="130" y="-630" width="40" height="40" as="geometry" />
        </mxCell>
        <mxCell id="jfEfAhBc7xesXZ9xOc8o-189" value="" style="rounded=0;whiteSpace=wrap;html=1;fillColor=#d5e8d4;strokeColor=#82b366;fontSize=14;" parent="1" vertex="1">
          <mxGeometry x="130" y="-590" width="40" height="40" as="geometry" />
        </mxCell>
        <mxCell id="jfEfAhBc7xesXZ9xOc8o-190" value="" style="rounded=0;whiteSpace=wrap;html=1;fillColor=#d5e8d4;strokeColor=#82b366;fontSize=14;" parent="1" vertex="1">
          <mxGeometry x="130" y="-550" width="40" height="40" as="geometry" />
        </mxCell>
        <mxCell id="jfEfAhBc7xesXZ9xOc8o-191" value="" style="rounded=0;whiteSpace=wrap;html=1;fillColor=#fff2cc;strokeColor=#d6b656;fontSize=14;" parent="1" vertex="1">
          <mxGeometry x="130" y="-510" width="40" height="40" as="geometry" />
        </mxCell>
        <mxCell id="jfEfAhBc7xesXZ9xOc8o-192" value="" style="rounded=0;whiteSpace=wrap;html=1;fontSize=14;" parent="1" vertex="1">
          <mxGeometry x="130" y="-470" width="40" height="40" as="geometry" />
        </mxCell>
        <mxCell id="jfEfAhBc7xesXZ9xOc8o-193" value="" style="rounded=0;whiteSpace=wrap;html=1;fillColor=#fff2cc;strokeColor=#d6b656;fontSize=14;" parent="1" vertex="1">
          <mxGeometry x="170" y="-710" width="40" height="40" as="geometry" />
        </mxCell>
        <mxCell id="jfEfAhBc7xesXZ9xOc8o-194" value="" style="rounded=0;whiteSpace=wrap;html=1;fillColor=#d5e8d4;strokeColor=#82b366;fontSize=14;" parent="1" vertex="1">
          <mxGeometry x="170" y="-670" width="40" height="40" as="geometry" />
        </mxCell>
        <mxCell id="jfEfAhBc7xesXZ9xOc8o-195" value="" style="rounded=0;whiteSpace=wrap;html=1;fillColor=#d5e8d4;strokeColor=#82b366;fontSize=14;" parent="1" vertex="1">
          <mxGeometry x="170" y="-630" width="40" height="40" as="geometry" />
        </mxCell>
        <mxCell id="jfEfAhBc7xesXZ9xOc8o-196" value="" style="rounded=0;whiteSpace=wrap;html=1;fillColor=#d5e8d4;strokeColor=#82b366;fontSize=14;" parent="1" vertex="1">
          <mxGeometry x="170" y="-590" width="40" height="40" as="geometry" />
        </mxCell>
        <mxCell id="jfEfAhBc7xesXZ9xOc8o-197" value="" style="rounded=0;whiteSpace=wrap;html=1;fillColor=#fff2cc;strokeColor=#d6b656;fontSize=14;" parent="1" vertex="1">
          <mxGeometry x="170" y="-550" width="40" height="40" as="geometry" />
        </mxCell>
        <mxCell id="jfEfAhBc7xesXZ9xOc8o-198" value="" style="rounded=0;whiteSpace=wrap;html=1;fontSize=14;" parent="1" vertex="1">
          <mxGeometry x="170" y="-510" width="40" height="40" as="geometry" />
        </mxCell>
        <mxCell id="jfEfAhBc7xesXZ9xOc8o-199" value="" style="rounded=0;whiteSpace=wrap;html=1;fontSize=14;" parent="1" vertex="1">
          <mxGeometry x="170" y="-470" width="40" height="40" as="geometry" />
        </mxCell>
        <mxCell id="jfEfAhBc7xesXZ9xOc8o-200" value="" style="rounded=0;whiteSpace=wrap;html=1;fillColor=#d5e8d4;strokeColor=#82b366;fontSize=14;" parent="1" vertex="1">
          <mxGeometry x="210" y="-710" width="40" height="40" as="geometry" />
        </mxCell>
        <mxCell id="jfEfAhBc7xesXZ9xOc8o-201" value="" style="rounded=0;whiteSpace=wrap;html=1;fillColor=#d5e8d4;strokeColor=#82b366;fontSize=14;" parent="1" vertex="1">
          <mxGeometry x="210" y="-670" width="40" height="40" as="geometry" />
        </mxCell>
        <mxCell id="jfEfAhBc7xesXZ9xOc8o-202" value="" style="rounded=0;whiteSpace=wrap;html=1;fillColor=#d5e8d4;strokeColor=#82b366;fontSize=14;" parent="1" vertex="1">
          <mxGeometry x="210" y="-630" width="40" height="40" as="geometry" />
        </mxCell>
        <mxCell id="jfEfAhBc7xesXZ9xOc8o-203" value="" style="rounded=0;whiteSpace=wrap;html=1;fillColor=#d5e8d4;strokeColor=#82b366;fontSize=14;" parent="1" vertex="1">
          <mxGeometry x="210" y="-590" width="40" height="40" as="geometry" />
        </mxCell>
        <mxCell id="jfEfAhBc7xesXZ9xOc8o-204" value="" style="rounded=0;whiteSpace=wrap;html=1;fontSize=14;" parent="1" vertex="1">
          <mxGeometry x="210" y="-550" width="40" height="40" as="geometry" />
        </mxCell>
        <mxCell id="jfEfAhBc7xesXZ9xOc8o-205" value="" style="rounded=0;whiteSpace=wrap;html=1;fontSize=14;" parent="1" vertex="1">
          <mxGeometry x="210" y="-510" width="40" height="40" as="geometry" />
        </mxCell>
        <mxCell id="jfEfAhBc7xesXZ9xOc8o-206" value="" style="rounded=0;whiteSpace=wrap;html=1;fontSize=14;" parent="1" vertex="1">
          <mxGeometry x="210" y="-470" width="40" height="40" as="geometry" />
        </mxCell>
        <mxCell id="jfEfAhBc7xesXZ9xOc8o-207" value="" style="rounded=0;whiteSpace=wrap;html=1;fillColor=#d5e8d4;strokeColor=#82b366;fontSize=14;" parent="1" vertex="1">
          <mxGeometry x="250" y="-710" width="40" height="40" as="geometry" />
        </mxCell>
        <mxCell id="jfEfAhBc7xesXZ9xOc8o-208" value="" style="rounded=0;whiteSpace=wrap;html=1;fillColor=#d5e8d4;strokeColor=#82b366;fontSize=14;" parent="1" vertex="1">
          <mxGeometry x="250" y="-670" width="40" height="40" as="geometry" />
        </mxCell>
        <mxCell id="jfEfAhBc7xesXZ9xOc8o-209" value="" style="rounded=0;whiteSpace=wrap;html=1;fillColor=#d5e8d4;strokeColor=#82b366;fontSize=14;" parent="1" vertex="1">
          <mxGeometry x="250" y="-630" width="40" height="40" as="geometry" />
        </mxCell>
        <mxCell id="jfEfAhBc7xesXZ9xOc8o-210" value="" style="rounded=0;whiteSpace=wrap;html=1;fontSize=14;" parent="1" vertex="1">
          <mxGeometry x="250" y="-590" width="40" height="40" as="geometry" />
        </mxCell>
        <mxCell id="jfEfAhBc7xesXZ9xOc8o-211" value="" style="rounded=0;whiteSpace=wrap;html=1;fontSize=14;" parent="1" vertex="1">
          <mxGeometry x="250" y="-550" width="40" height="40" as="geometry" />
        </mxCell>
        <mxCell id="jfEfAhBc7xesXZ9xOc8o-212" value="" style="rounded=0;whiteSpace=wrap;html=1;fontSize=14;" parent="1" vertex="1">
          <mxGeometry x="250" y="-510" width="40" height="40" as="geometry" />
        </mxCell>
        <mxCell id="jfEfAhBc7xesXZ9xOc8o-213" value="" style="rounded=0;whiteSpace=wrap;html=1;fontSize=14;" parent="1" vertex="1">
          <mxGeometry x="250" y="-470" width="40" height="40" as="geometry" />
        </mxCell>
        <mxCell id="jfEfAhBc7xesXZ9xOc8o-214" value="loại bỏ 20 phần tử ở rìa" style="text;html=1;align=center;verticalAlign=middle;whiteSpace=wrap;rounded=0;fontSize=14;" parent="1" vertex="1">
          <mxGeometry x="190" y="-770" width="100" height="30" as="geometry" />
        </mxCell>
        <mxCell id="jfEfAhBc7xesXZ9xOc8o-215" value="" style="rounded=0;whiteSpace=wrap;html=1;fontSize=14;" parent="1" vertex="1">
          <mxGeometry x="-360" y="-720" width="40" height="40" as="geometry" />
        </mxCell>
        <mxCell id="jfEfAhBc7xesXZ9xOc8o-216" value="" style="rounded=0;whiteSpace=wrap;html=1;fontSize=14;" parent="1" vertex="1">
          <mxGeometry x="-360" y="-680" width="40" height="40" as="geometry" />
        </mxCell>
        <mxCell id="jfEfAhBc7xesXZ9xOc8o-217" value="" style="rounded=0;whiteSpace=wrap;html=1;fontSize=14;" parent="1" vertex="1">
          <mxGeometry x="-360" y="-640" width="40" height="40" as="geometry" />
        </mxCell>
        <mxCell id="jfEfAhBc7xesXZ9xOc8o-218" value="" style="rounded=0;whiteSpace=wrap;html=1;fontSize=14;" parent="1" vertex="1">
          <mxGeometry x="-360" y="-600" width="40" height="40" as="geometry" />
        </mxCell>
        <mxCell id="jfEfAhBc7xesXZ9xOc8o-219" value="16" style="rounded=0;whiteSpace=wrap;html=1;fillColor=#d5e8d4;strokeColor=#82b366;fontSize=14;" parent="1" vertex="1">
          <mxGeometry x="-360" y="-560" width="40" height="40" as="geometry" />
        </mxCell>
        <mxCell id="jfEfAhBc7xesXZ9xOc8o-220" value="21" style="rounded=0;whiteSpace=wrap;html=1;fillColor=#d5e8d4;strokeColor=#82b366;fontSize=14;" parent="1" vertex="1">
          <mxGeometry x="-360" y="-520" width="40" height="40" as="geometry" />
        </mxCell>
        <mxCell id="jfEfAhBc7xesXZ9xOc8o-221" value="24" style="rounded=0;whiteSpace=wrap;html=1;fillColor=#d5e8d4;strokeColor=#82b366;fontSize=14;" parent="1" vertex="1">
          <mxGeometry x="-360" y="-480" width="40" height="40" as="geometry" />
        </mxCell>
        <mxCell id="jfEfAhBc7xesXZ9xOc8o-222" value="" style="rounded=0;whiteSpace=wrap;html=1;fontSize=14;" parent="1" vertex="1">
          <mxGeometry x="-320" y="-720" width="40" height="40" as="geometry" />
        </mxCell>
        <mxCell id="jfEfAhBc7xesXZ9xOc8o-223" value="" style="rounded=0;whiteSpace=wrap;html=1;fontSize=14;" parent="1" vertex="1">
          <mxGeometry x="-320" y="-680" width="40" height="40" as="geometry" />
        </mxCell>
        <mxCell id="jfEfAhBc7xesXZ9xOc8o-224" value="" style="rounded=0;whiteSpace=wrap;html=1;fontSize=14;" parent="1" vertex="1">
          <mxGeometry x="-320" y="-640" width="40" height="40" as="geometry" />
        </mxCell>
        <mxCell id="jfEfAhBc7xesXZ9xOc8o-225" value="11" style="rounded=0;whiteSpace=wrap;html=1;fillColor=#d5e8d4;strokeColor=#82b366;fontSize=14;" parent="1" vertex="1">
          <mxGeometry x="-320" y="-600" width="40" height="40" as="geometry" />
        </mxCell>
        <mxCell id="jfEfAhBc7xesXZ9xOc8o-226" value="17" style="rounded=0;whiteSpace=wrap;html=1;fillColor=#d5e8d4;strokeColor=#82b366;fontSize=14;" parent="1" vertex="1">
          <mxGeometry x="-320" y="-560" width="40" height="40" as="geometry" />
        </mxCell>
        <mxCell id="jfEfAhBc7xesXZ9xOc8o-227" value="22" style="rounded=0;whiteSpace=wrap;html=1;fillColor=#d5e8d4;strokeColor=#82b366;fontSize=14;" parent="1" vertex="1">
          <mxGeometry x="-320" y="-520" width="40" height="40" as="geometry" />
        </mxCell>
        <mxCell id="jfEfAhBc7xesXZ9xOc8o-228" value="25" style="rounded=0;whiteSpace=wrap;html=1;fillColor=#d5e8d4;strokeColor=#82b366;fontSize=14;" parent="1" vertex="1">
          <mxGeometry x="-320" y="-480" width="40" height="40" as="geometry" />
        </mxCell>
        <mxCell id="jfEfAhBc7xesXZ9xOc8o-229" value="" style="rounded=0;whiteSpace=wrap;html=1;fontSize=14;" parent="1" vertex="1">
          <mxGeometry x="-280" y="-720" width="40" height="40" as="geometry" />
        </mxCell>
        <mxCell id="jfEfAhBc7xesXZ9xOc8o-230" value="" style="rounded=0;whiteSpace=wrap;html=1;fontSize=14;" parent="1" vertex="1">
          <mxGeometry x="-280" y="-680" width="40" height="40" as="geometry" />
        </mxCell>
        <mxCell id="jfEfAhBc7xesXZ9xOc8o-231" value="max (6)" style="rounded=0;whiteSpace=wrap;html=1;fillColor=#fff2cc;strokeColor=#d6b656;direction=south;fontSize=14;" parent="1" vertex="1">
          <mxGeometry x="-280" y="-640" width="40" height="40" as="geometry" />
        </mxCell>
        <mxCell id="jfEfAhBc7xesXZ9xOc8o-232" value="12" style="rounded=0;whiteSpace=wrap;html=1;fillColor=#d5e8d4;strokeColor=#82b366;fontSize=14;" parent="1" vertex="1">
          <mxGeometry x="-280" y="-600" width="40" height="40" as="geometry" />
        </mxCell>
        <mxCell id="jfEfAhBc7xesXZ9xOc8o-233" value="18" style="rounded=0;whiteSpace=wrap;html=1;fillColor=#d5e8d4;strokeColor=#82b366;fontSize=14;" parent="1" vertex="1">
          <mxGeometry x="-280" y="-560" width="40" height="40" as="geometry" />
        </mxCell>
        <mxCell id="jfEfAhBc7xesXZ9xOc8o-234" value="23" style="rounded=0;whiteSpace=wrap;html=1;fillColor=#d5e8d4;strokeColor=#82b366;fontSize=14;" parent="1" vertex="1">
          <mxGeometry x="-280" y="-520" width="40" height="40" as="geometry" />
        </mxCell>
        <mxCell id="jfEfAhBc7xesXZ9xOc8o-235" value="" style="rounded=0;whiteSpace=wrap;html=1;fontSize=14;" parent="1" vertex="1">
          <mxGeometry x="-280" y="-480" width="40" height="40" as="geometry" />
        </mxCell>
        <mxCell id="jfEfAhBc7xesXZ9xOc8o-236" value="" style="rounded=0;whiteSpace=wrap;html=1;fontSize=14;" parent="1" vertex="1">
          <mxGeometry x="-240" y="-720" width="40" height="40" as="geometry" />
        </mxCell>
        <mxCell id="jfEfAhBc7xesXZ9xOc8o-237" value="" style="rounded=0;whiteSpace=wrap;html=1;direction=south;fontSize=14;" parent="1" vertex="1">
          <mxGeometry x="-240" y="-680" width="40" height="40" as="geometry" />
        </mxCell>
        <mxCell id="jfEfAhBc7xesXZ9xOc8o-238" value="7" style="rounded=0;whiteSpace=wrap;html=1;fillColor=#d5e8d4;strokeColor=#82b366;fontSize=14;" parent="1" vertex="1">
          <mxGeometry x="-240" y="-640" width="40" height="40" as="geometry" />
        </mxCell>
        <mxCell id="jfEfAhBc7xesXZ9xOc8o-239" value="13" style="rounded=0;whiteSpace=wrap;html=1;fillColor=#d5e8d4;strokeColor=#82b366;fontSize=14;" parent="1" vertex="1">
          <mxGeometry x="-240" y="-600" width="40" height="40" as="geometry" />
        </mxCell>
        <mxCell id="jfEfAhBc7xesXZ9xOc8o-240" value="19" style="rounded=0;whiteSpace=wrap;html=1;fillColor=#d5e8d4;strokeColor=#82b366;fontSize=14;" parent="1" vertex="1">
          <mxGeometry x="-240" y="-560" width="40" height="40" as="geometry" />
        </mxCell>
        <mxCell id="jfEfAhBc7xesXZ9xOc8o-241" value="" style="rounded=0;whiteSpace=wrap;html=1;fontSize=14;" parent="1" vertex="1">
          <mxGeometry x="-240" y="-520" width="40" height="40" as="geometry" />
        </mxCell>
        <mxCell id="jfEfAhBc7xesXZ9xOc8o-242" value="" style="rounded=0;whiteSpace=wrap;html=1;fontSize=14;" parent="1" vertex="1">
          <mxGeometry x="-240" y="-480" width="40" height="40" as="geometry" />
        </mxCell>
        <mxCell id="jfEfAhBc7xesXZ9xOc8o-243" value="" style="rounded=0;whiteSpace=wrap;html=1;fontSize=14;" parent="1" vertex="1">
          <mxGeometry x="-200" y="-720" width="40" height="40" as="geometry" />
        </mxCell>
        <mxCell id="jfEfAhBc7xesXZ9xOc8o-244" value="3" style="rounded=0;whiteSpace=wrap;html=1;fillColor=#d5e8d4;strokeColor=#82b366;fontSize=14;" parent="1" vertex="1">
          <mxGeometry x="-200" y="-680" width="40" height="40" as="geometry" />
        </mxCell>
        <mxCell id="jfEfAhBc7xesXZ9xOc8o-245" value="8" style="rounded=0;whiteSpace=wrap;html=1;fillColor=#d5e8d4;strokeColor=#82b366;fontSize=14;" parent="1" vertex="1">
          <mxGeometry x="-200" y="-640" width="40" height="40" as="geometry" />
        </mxCell>
        <mxCell id="jfEfAhBc7xesXZ9xOc8o-246" value="14" style="rounded=0;whiteSpace=wrap;html=1;fillColor=#d5e8d4;strokeColor=#82b366;fontSize=14;" parent="1" vertex="1">
          <mxGeometry x="-200" y="-600" width="40" height="40" as="geometry" />
        </mxCell>
        <mxCell id="jfEfAhBc7xesXZ9xOc8o-247" value="min (20)" style="rounded=0;whiteSpace=wrap;html=1;fillColor=#fff2cc;strokeColor=#d6b656;fontSize=14;" parent="1" vertex="1">
          <mxGeometry x="-200" y="-560" width="40" height="40" as="geometry" />
        </mxCell>
        <mxCell id="jfEfAhBc7xesXZ9xOc8o-248" value="" style="rounded=0;whiteSpace=wrap;html=1;fontSize=14;" parent="1" vertex="1">
          <mxGeometry x="-200" y="-520" width="40" height="40" as="geometry" />
        </mxCell>
        <mxCell id="jfEfAhBc7xesXZ9xOc8o-249" value="" style="rounded=0;whiteSpace=wrap;html=1;fontSize=14;" parent="1" vertex="1">
          <mxGeometry x="-200" y="-480" width="40" height="40" as="geometry" />
        </mxCell>
        <mxCell id="jfEfAhBc7xesXZ9xOc8o-250" value="1" style="rounded=0;whiteSpace=wrap;html=1;fillColor=#d5e8d4;strokeColor=#82b366;fontSize=14;" parent="1" vertex="1">
          <mxGeometry x="-160" y="-720" width="40" height="40" as="geometry" />
        </mxCell>
        <mxCell id="jfEfAhBc7xesXZ9xOc8o-251" value="4" style="rounded=0;whiteSpace=wrap;html=1;fillColor=#d5e8d4;strokeColor=#82b366;fontSize=14;" parent="1" vertex="1">
          <mxGeometry x="-160" y="-680" width="40" height="40" as="geometry" />
        </mxCell>
        <mxCell id="jfEfAhBc7xesXZ9xOc8o-252" value="9" style="rounded=0;whiteSpace=wrap;html=1;fillColor=#d5e8d4;strokeColor=#82b366;fontSize=14;" parent="1" vertex="1">
          <mxGeometry x="-160" y="-640" width="40" height="40" as="geometry" />
        </mxCell>
        <mxCell id="jfEfAhBc7xesXZ9xOc8o-253" value="15" style="rounded=0;whiteSpace=wrap;html=1;fillColor=#d5e8d4;strokeColor=#82b366;fontSize=14;" parent="1" vertex="1">
          <mxGeometry x="-160" y="-600" width="40" height="40" as="geometry" />
        </mxCell>
        <mxCell id="jfEfAhBc7xesXZ9xOc8o-254" value="" style="rounded=0;whiteSpace=wrap;html=1;fontSize=14;" parent="1" vertex="1">
          <mxGeometry x="-160" y="-560" width="40" height="40" as="geometry" />
        </mxCell>
        <mxCell id="jfEfAhBc7xesXZ9xOc8o-255" value="" style="rounded=0;whiteSpace=wrap;html=1;fontSize=14;" parent="1" vertex="1">
          <mxGeometry x="-160" y="-520" width="40" height="40" as="geometry" />
        </mxCell>
        <mxCell id="jfEfAhBc7xesXZ9xOc8o-256" value="" style="rounded=0;whiteSpace=wrap;html=1;fontSize=14;" parent="1" vertex="1">
          <mxGeometry x="-160" y="-480" width="40" height="40" as="geometry" />
        </mxCell>
        <mxCell id="jfEfAhBc7xesXZ9xOc8o-257" value="2" style="rounded=0;whiteSpace=wrap;html=1;fillColor=#d5e8d4;strokeColor=#82b366;fontSize=14;" parent="1" vertex="1">
          <mxGeometry x="-120" y="-720" width="40" height="40" as="geometry" />
        </mxCell>
        <mxCell id="jfEfAhBc7xesXZ9xOc8o-258" value="5" style="rounded=0;whiteSpace=wrap;html=1;fillColor=#d5e8d4;strokeColor=#82b366;fontSize=14;" parent="1" vertex="1">
          <mxGeometry x="-120" y="-680" width="40" height="40" as="geometry" />
        </mxCell>
        <mxCell id="jfEfAhBc7xesXZ9xOc8o-259" value="10" style="rounded=0;whiteSpace=wrap;html=1;fillColor=#d5e8d4;strokeColor=#82b366;fontSize=14;" parent="1" vertex="1">
          <mxGeometry x="-120" y="-640" width="40" height="40" as="geometry" />
        </mxCell>
        <mxCell id="jfEfAhBc7xesXZ9xOc8o-260" value="" style="rounded=0;whiteSpace=wrap;html=1;fontSize=14;" parent="1" vertex="1">
          <mxGeometry x="-120" y="-600" width="40" height="40" as="geometry" />
        </mxCell>
        <mxCell id="jfEfAhBc7xesXZ9xOc8o-261" value="" style="rounded=0;whiteSpace=wrap;html=1;fontSize=14;" parent="1" vertex="1">
          <mxGeometry x="-120" y="-560" width="40" height="40" as="geometry" />
        </mxCell>
        <mxCell id="jfEfAhBc7xesXZ9xOc8o-262" value="" style="rounded=0;whiteSpace=wrap;html=1;fontSize=14;" parent="1" vertex="1">
          <mxGeometry x="-120" y="-520" width="40" height="40" as="geometry" />
        </mxCell>
        <mxCell id="jfEfAhBc7xesXZ9xOc8o-263" value="" style="rounded=0;whiteSpace=wrap;html=1;fontSize=14;" parent="1" vertex="1">
          <mxGeometry x="-120" y="-480" width="40" height="40" as="geometry" />
        </mxCell>
        <mxCell id="jfEfAhBc7xesXZ9xOc8o-264" value="" style="shape=flexArrow;endArrow=classic;html=1;rounded=0;fontSize=14;" parent="1" edge="1">
          <mxGeometry width="50" height="50" relative="1" as="geometry">
            <mxPoint x="-10" y="-580.56" as="sourcePoint" />
            <mxPoint x="-70" y="-580.56" as="targetPoint" />
          </mxGeometry>
        </mxCell>
        <mxCell id="jfEfAhBc7xesXZ9xOc8o-266" value="" style="shape=flexArrow;endArrow=classic;html=1;rounded=0;fontSize=14;" parent="1" edge="1">
          <mxGeometry width="50" height="50" relative="1" as="geometry">
            <mxPoint x="-370" y="-600.77" as="sourcePoint" />
            <mxPoint x="-430" y="-600.77" as="targetPoint" />
          </mxGeometry>
        </mxCell>
        <mxCell id="jfEfAhBc7xesXZ9xOc8o-326" value="1" style="rounded=0;whiteSpace=wrap;html=1;fontSize=14;" parent="1" vertex="1">
          <mxGeometry x="-680" y="-680" width="40" height="40" as="geometry" />
        </mxCell>
        <mxCell id="jfEfAhBc7xesXZ9xOc8o-327" value="6" style="rounded=0;whiteSpace=wrap;html=1;fontSize=14;" parent="1" vertex="1">
          <mxGeometry x="-680" y="-640" width="40" height="40" as="geometry" />
        </mxCell>
        <mxCell id="jfEfAhBc7xesXZ9xOc8o-328" value="11" style="rounded=0;whiteSpace=wrap;html=1;fontSize=14;" parent="1" vertex="1">
          <mxGeometry x="-680" y="-600" width="40" height="40" as="geometry" />
        </mxCell>
        <mxCell id="jfEfAhBc7xesXZ9xOc8o-329" value="16" style="rounded=0;whiteSpace=wrap;html=1;fontSize=14;" parent="1" vertex="1">
          <mxGeometry x="-680" y="-560" width="40" height="40" as="geometry" />
        </mxCell>
        <mxCell id="jfEfAhBc7xesXZ9xOc8o-330" value="21" style="rounded=0;whiteSpace=wrap;html=1;fontSize=14;" parent="1" vertex="1">
          <mxGeometry x="-680" y="-520" width="40" height="40" as="geometry" />
        </mxCell>
        <mxCell id="jfEfAhBc7xesXZ9xOc8o-333" value="2" style="rounded=0;whiteSpace=wrap;html=1;fontSize=14;" parent="1" vertex="1">
          <mxGeometry x="-640" y="-680" width="40" height="40" as="geometry" />
        </mxCell>
        <mxCell id="jfEfAhBc7xesXZ9xOc8o-334" value="7" style="rounded=0;whiteSpace=wrap;html=1;fontSize=14;" parent="1" vertex="1">
          <mxGeometry x="-640" y="-640" width="40" height="40" as="geometry" />
        </mxCell>
        <mxCell id="jfEfAhBc7xesXZ9xOc8o-335" value="12" style="rounded=0;whiteSpace=wrap;html=1;fontSize=14;" parent="1" vertex="1">
          <mxGeometry x="-640" y="-600" width="40" height="40" as="geometry" />
        </mxCell>
        <mxCell id="jfEfAhBc7xesXZ9xOc8o-336" value="17" style="rounded=0;whiteSpace=wrap;html=1;fontSize=14;" parent="1" vertex="1">
          <mxGeometry x="-640" y="-560" width="40" height="40" as="geometry" />
        </mxCell>
        <mxCell id="jfEfAhBc7xesXZ9xOc8o-337" value="22" style="rounded=0;whiteSpace=wrap;html=1;fontSize=14;" parent="1" vertex="1">
          <mxGeometry x="-640" y="-520" width="40" height="40" as="geometry" />
        </mxCell>
        <mxCell id="jfEfAhBc7xesXZ9xOc8o-340" value="3" style="rounded=0;whiteSpace=wrap;html=1;fontSize=14;" parent="1" vertex="1">
          <mxGeometry x="-600" y="-680" width="40" height="40" as="geometry" />
        </mxCell>
        <mxCell id="jfEfAhBc7xesXZ9xOc8o-341" value="8" style="rounded=0;whiteSpace=wrap;html=1;fontSize=14;" parent="1" vertex="1">
          <mxGeometry x="-600" y="-640" width="40" height="40" as="geometry" />
        </mxCell>
        <mxCell id="jfEfAhBc7xesXZ9xOc8o-342" value="13" style="rounded=0;whiteSpace=wrap;html=1;fontSize=14;" parent="1" vertex="1">
          <mxGeometry x="-600" y="-600" width="40" height="40" as="geometry" />
        </mxCell>
        <mxCell id="jfEfAhBc7xesXZ9xOc8o-343" value="18" style="rounded=0;whiteSpace=wrap;html=1;fontSize=14;" parent="1" vertex="1">
          <mxGeometry x="-600" y="-560" width="40" height="40" as="geometry" />
        </mxCell>
        <mxCell id="jfEfAhBc7xesXZ9xOc8o-344" value="23" style="rounded=0;whiteSpace=wrap;html=1;fontSize=14;" parent="1" vertex="1">
          <mxGeometry x="-600" y="-520" width="40" height="40" as="geometry" />
        </mxCell>
        <mxCell id="jfEfAhBc7xesXZ9xOc8o-347" value="4" style="rounded=0;whiteSpace=wrap;html=1;fontSize=14;" parent="1" vertex="1">
          <mxGeometry x="-560" y="-680" width="40" height="40" as="geometry" />
        </mxCell>
        <mxCell id="jfEfAhBc7xesXZ9xOc8o-348" value="9" style="rounded=0;whiteSpace=wrap;html=1;fontSize=14;" parent="1" vertex="1">
          <mxGeometry x="-560" y="-640" width="40" height="40" as="geometry" />
        </mxCell>
        <mxCell id="jfEfAhBc7xesXZ9xOc8o-349" value="14" style="rounded=0;whiteSpace=wrap;html=1;fontSize=14;" parent="1" vertex="1">
          <mxGeometry x="-560" y="-600" width="40" height="40" as="geometry" />
        </mxCell>
        <mxCell id="jfEfAhBc7xesXZ9xOc8o-350" value="19" style="rounded=0;whiteSpace=wrap;html=1;fontSize=14;" parent="1" vertex="1">
          <mxGeometry x="-560" y="-560" width="40" height="40" as="geometry" />
        </mxCell>
        <mxCell id="jfEfAhBc7xesXZ9xOc8o-351" value="24" style="rounded=0;whiteSpace=wrap;html=1;fontSize=14;" parent="1" vertex="1">
          <mxGeometry x="-560" y="-520" width="40" height="40" as="geometry" />
        </mxCell>
        <mxCell id="jfEfAhBc7xesXZ9xOc8o-354" value="5" style="rounded=0;whiteSpace=wrap;html=1;fontSize=14;" parent="1" vertex="1">
          <mxGeometry x="-520" y="-680" width="40" height="40" as="geometry" />
        </mxCell>
        <mxCell id="jfEfAhBc7xesXZ9xOc8o-355" value="10" style="rounded=0;whiteSpace=wrap;html=1;fontSize=14;" parent="1" vertex="1">
          <mxGeometry x="-520" y="-640" width="40" height="40" as="geometry" />
        </mxCell>
        <mxCell id="jfEfAhBc7xesXZ9xOc8o-356" value="15" style="rounded=0;whiteSpace=wrap;html=1;fontSize=14;" parent="1" vertex="1">
          <mxGeometry x="-520" y="-600" width="40" height="40" as="geometry" />
        </mxCell>
        <mxCell id="jfEfAhBc7xesXZ9xOc8o-357" value="20" style="rounded=0;whiteSpace=wrap;html=1;fontSize=14;" parent="1" vertex="1">
          <mxGeometry x="-520" y="-560" width="40" height="40" as="geometry" />
        </mxCell>
        <mxCell id="jfEfAhBc7xesXZ9xOc8o-358" value="25" style="rounded=0;whiteSpace=wrap;html=1;fontSize=14;" parent="1" vertex="1">
          <mxGeometry x="-520" y="-520" width="40" height="40" as="geometry" />
        </mxCell>
        <mxCell id="jfEfAhBc7xesXZ9xOc8o-374" value="Bước 1:" style="text;html=1;align=center;verticalAlign=middle;whiteSpace=wrap;rounded=0;" parent="1" vertex="1">
          <mxGeometry x="810" y="-1280" width="60" height="30" as="geometry" />
        </mxCell>
        <mxCell id="jfEfAhBc7xesXZ9xOc8o-376" value="Sắp xếp 5 phần tử đầu" style="text;html=1;align=center;verticalAlign=middle;whiteSpace=wrap;rounded=0;" parent="1" vertex="1">
          <mxGeometry x="1159" y="-1280" width="131" height="30" as="geometry" />
        </mxCell>
        <mxCell id="jfEfAhBc7xesXZ9xOc8o-377" value="Bước 2:" style="text;html=1;align=center;verticalAlign=middle;whiteSpace=wrap;rounded=0;" parent="1" vertex="1">
          <mxGeometry x="810" y="-1230" width="60" height="30" as="geometry" />
        </mxCell>
        <mxCell id="jfEfAhBc7xesXZ9xOc8o-378" value="Sắp xếp 5 phần tử cuối" style="text;html=1;align=center;verticalAlign=middle;whiteSpace=wrap;rounded=0;" parent="1" vertex="1">
          <mxGeometry x="1159" y="-1230" width="131" height="30" as="geometry" />
        </mxCell>
        <mxCell id="jfEfAhBc7xesXZ9xOc8o-379" value="Bước 3:" style="text;html=1;align=center;verticalAlign=middle;whiteSpace=wrap;rounded=0;" parent="1" vertex="1">
          <mxGeometry x="810" y="-1180" width="60" height="30" as="geometry" />
        </mxCell>
        <mxCell id="jfEfAhBc7xesXZ9xOc8o-380" value="Sắp xếp 4 phần tử đầu" style="text;html=1;align=center;verticalAlign=middle;whiteSpace=wrap;rounded=0;" parent="1" vertex="1">
          <mxGeometry x="1159" y="-1180" width="131" height="30" as="geometry" />
        </mxCell>
        <mxCell id="jfEfAhBc7xesXZ9xOc8o-383" value="" style="endArrow=classic;html=1;rounded=0;exitX=0.033;exitY=1;exitDx=0;exitDy=0;exitPerimeter=0;entryX=0.032;entryY=-0.009;entryDx=0;entryDy=0;entryPerimeter=0;" parent="1" source="jfEfAhBc7xesXZ9xOc8o-375" edge="1">
          <mxGeometry width="50" height="50" relative="1" as="geometry">
            <mxPoint x="860" y="-1170" as="sourcePoint" />
            <mxPoint x="839.6000000000004" y="-1230.2699999999998" as="targetPoint" />
          </mxGeometry>
        </mxCell>
        <mxCell id="jfEfAhBc7xesXZ9xOc8o-384" value="" style="endArrow=classic;html=1;rounded=0;exitX=0.033;exitY=1;exitDx=0;exitDy=0;exitPerimeter=0;entryX=0.032;entryY=-0.009;entryDx=0;entryDy=0;entryPerimeter=0;" parent="1" edge="1">
          <mxGeometry width="50" height="50" relative="1" as="geometry">
            <mxPoint x="839.92" y="-1200" as="sourcePoint" />
            <mxPoint x="839.92" y="-1180" as="targetPoint" />
          </mxGeometry>
        </mxCell>
        <mxCell id="jfEfAhBc7xesXZ9xOc8o-394" value="1&lt;span style=&quot;white-space: pre;&quot;&gt;&#x9;&lt;/span&gt;4&lt;span style=&quot;white-space: pre;&quot;&gt;&#x9;&lt;/span&gt;2&lt;span style=&quot;white-space: pre;&quot;&gt;&#x9;&lt;/span&gt;3&lt;span style=&quot;white-space: pre;&quot;&gt;&#x9;&lt;/span&gt;6&lt;span style=&quot;white-space: pre;&quot;&gt;&#x9;&lt;/span&gt;7&lt;span style=&quot;white-space: pre;&quot;&gt;&#x9;&lt;/span&gt;10" style="text;html=1;align=center;verticalAlign=middle;whiteSpace=wrap;rounded=0;" parent="1" vertex="1">
          <mxGeometry x="830" y="-1180" width="300" height="30" as="geometry" />
        </mxCell>
        <mxCell id="jfEfAhBc7xesXZ9xOc8o-397" value="Bước 3 có thể làm thành như sau" style="text;html=1;align=center;verticalAlign=middle;whiteSpace=wrap;rounded=0;" parent="1" vertex="1">
          <mxGeometry x="772" y="-1140" width="115" height="30" as="geometry" />
        </mxCell>
        <mxCell id="jfEfAhBc7xesXZ9xOc8o-398" value="1&lt;span style=&quot;white-space: pre;&quot;&gt;&#x9;&lt;/span&gt;4&lt;span style=&quot;white-space: pre;&quot;&gt;&#x9;&lt;/span&gt;2&lt;span style=&quot;white-space: pre;&quot;&gt;&#x9;&lt;/span&gt;3&lt;span style=&quot;white-space: pre;&quot;&gt;&#x9;&lt;/span&gt;8&lt;span style=&quot;white-space: pre;&quot;&gt;&#x9;&lt;/span&gt;9&lt;span style=&quot;white-space: pre;&quot;&gt;&#x9;&lt;/span&gt;10" style="text;html=1;align=center;verticalAlign=middle;whiteSpace=wrap;rounded=0;" parent="1" vertex="1">
          <mxGeometry x="827.5" y="-1100" width="300" height="30" as="geometry" />
        </mxCell>
        <mxCell id="jfEfAhBc7xesXZ9xOc8o-399" value="Bước 3.1:" style="text;html=1;align=center;verticalAlign=middle;whiteSpace=wrap;rounded=0;" parent="1" vertex="1">
          <mxGeometry x="810" y="-1100" width="60" height="30" as="geometry" />
        </mxCell>
        <mxCell id="jfEfAhBc7xesXZ9xOc8o-401" value="Sắp xếp 3 phần tử đầu" style="text;html=1;align=center;verticalAlign=middle;whiteSpace=wrap;rounded=0;" parent="1" vertex="1">
          <mxGeometry x="1159" y="-1100" width="131" height="30" as="geometry" />
        </mxCell>
        <mxCell id="jfEfAhBc7xesXZ9xOc8o-402" value="Bước 3.2:" style="text;html=1;align=center;verticalAlign=middle;whiteSpace=wrap;rounded=0;" parent="1" vertex="1">
          <mxGeometry x="810" y="-1060" width="60" height="30" as="geometry" />
        </mxCell>
        <mxCell id="jfEfAhBc7xesXZ9xOc8o-403" value="1&lt;span style=&quot;white-space: pre;&quot;&gt;&#x9;&lt;/span&gt;2&lt;span style=&quot;white-space: pre;&quot;&gt;&#x9;&lt;/span&gt;4&lt;span style=&quot;white-space: pre;&quot;&gt;&#x9;&lt;/span&gt;3&lt;span style=&quot;white-space: pre;&quot;&gt;&#x9;&lt;/span&gt;8&lt;span style=&quot;white-space: pre;&quot;&gt;&#x9;&lt;/span&gt;9&lt;span style=&quot;white-space: pre;&quot;&gt;&#x9;&lt;/span&gt;10" style="text;html=1;align=center;verticalAlign=middle;whiteSpace=wrap;rounded=0;" parent="1" vertex="1">
          <mxGeometry x="824.5" y="-1060" width="300" height="30" as="geometry" />
        </mxCell>
        <mxCell id="jfEfAhBc7xesXZ9xOc8o-404" value="Sắp xếp 3 phần tử cuối" style="text;html=1;align=center;verticalAlign=middle;whiteSpace=wrap;rounded=0;" parent="1" vertex="1">
          <mxGeometry x="1159" y="-1060" width="131" height="30" as="geometry" />
        </mxCell>
        <mxCell id="jfEfAhBc7xesXZ9xOc8o-406" value="" style="endArrow=classic;html=1;rounded=0;" parent="1" edge="1">
          <mxGeometry width="50" height="50" relative="1" as="geometry">
            <mxPoint x="804.5" y="-1005.11" as="sourcePoint" />
            <mxPoint x="854.5" y="-1005.11" as="targetPoint" />
          </mxGeometry>
        </mxCell>
        <mxCell id="jfEfAhBc7xesXZ9xOc8o-407" value="1&lt;span style=&quot;white-space: pre;&quot;&gt;&#x9;&lt;/span&gt;2&lt;span style=&quot;white-space: pre;&quot;&gt;&#x9;&lt;/span&gt;3&lt;span style=&quot;white-space: pre;&quot;&gt;&#x9;&lt;/span&gt;4&lt;span style=&quot;white-space: pre;&quot;&gt;&#x9;&lt;/span&gt;8&lt;span style=&quot;white-space: pre;&quot;&gt;&#x9;&lt;/span&gt;9&lt;span style=&quot;white-space: pre;&quot;&gt;&#x9;&lt;/span&gt;10" style="text;html=1;align=center;verticalAlign=middle;whiteSpace=wrap;rounded=0;" parent="1" vertex="1">
          <mxGeometry x="824.5" y="-1020" width="300" height="30" as="geometry" />
        </mxCell>
        <mxCell id="jfEfAhBc7xesXZ9xOc8o-412" value="" style="endArrow=classic;html=1;rounded=0;" parent="1" edge="1">
          <mxGeometry width="50" height="50" relative="1" as="geometry">
            <mxPoint x="410" y="-1660" as="sourcePoint" />
            <mxPoint x="490" y="-1660" as="targetPoint" />
          </mxGeometry>
        </mxCell>
        <mxCell id="jfEfAhBc7xesXZ9xOc8o-413" value="" style="endArrow=classic;html=1;rounded=0;" parent="1" edge="1">
          <mxGeometry width="50" height="50" relative="1" as="geometry">
            <mxPoint x="410" y="-1630" as="sourcePoint" />
            <mxPoint x="490" y="-1630" as="targetPoint" />
          </mxGeometry>
        </mxCell>
        <mxCell id="jfEfAhBc7xesXZ9xOc8o-414" value="" style="endArrow=classic;html=1;rounded=0;" parent="1" edge="1">
          <mxGeometry width="50" height="50" relative="1" as="geometry">
            <mxPoint x="410" y="-1600" as="sourcePoint" />
            <mxPoint x="490" y="-1600" as="targetPoint" />
          </mxGeometry>
        </mxCell>
        <mxCell id="jfEfAhBc7xesXZ9xOc8o-415" value="" style="endArrow=classic;html=1;rounded=0;" parent="1" edge="1">
          <mxGeometry width="50" height="50" relative="1" as="geometry">
            <mxPoint x="540" y="-1680" as="sourcePoint" />
            <mxPoint x="540" y="-1740" as="targetPoint" />
          </mxGeometry>
        </mxCell>
        <mxCell id="jfEfAhBc7xesXZ9xOc8o-416" value="" style="endArrow=classic;html=1;rounded=0;" parent="1" edge="1">
          <mxGeometry width="50" height="50" relative="1" as="geometry">
            <mxPoint x="580" y="-1680" as="sourcePoint" />
            <mxPoint x="580" y="-1740" as="targetPoint" />
          </mxGeometry>
        </mxCell>
        <mxCell id="jfEfAhBc7xesXZ9xOc8o-417" value="" style="endArrow=classic;html=1;rounded=0;" parent="1" edge="1">
          <mxGeometry width="50" height="50" relative="1" as="geometry">
            <mxPoint x="610" y="-1620" as="sourcePoint" />
            <mxPoint x="660" y="-1620" as="targetPoint" />
          </mxGeometry>
        </mxCell>
        <mxCell id="jfEfAhBc7xesXZ9xOc8o-420" value="các tín hiệu đầu vào" style="text;html=1;align=center;verticalAlign=middle;whiteSpace=wrap;rounded=0;" parent="1" vertex="1">
          <mxGeometry x="300" y="-1655" width="110" height="30" as="geometry" />
        </mxCell>
        <mxCell id="jfEfAhBc7xesXZ9xOc8o-421" value="các tín hiệu bên trong" style="text;html=1;align=center;verticalAlign=middle;whiteSpace=wrap;rounded=0;" parent="1" vertex="1">
          <mxGeometry x="580" y="-1650" width="80" height="30" as="geometry" />
        </mxCell>
        <mxCell id="jfEfAhBc7xesXZ9xOc8o-422" value="các tín hiệu đầu ra" style="text;html=1;align=center;verticalAlign=middle;whiteSpace=wrap;rounded=0;" parent="1" vertex="1">
          <mxGeometry x="510" y="-1770" width="100" height="30" as="geometry" />
        </mxCell>
      </root>
    </mxGraphModel>
  </diagram>
</mxfile>
